<svg width="137" height="35" viewBox="0 0 137 35" fill="none" xmlns="http://www.w3.org/2000/svg">
<path d="M71.5817 0H71.8853L71.9415 10.917C71.9415 10.9191 71.9421 10.9213 71.9432 10.9231C71.9443 10.925 71.9458 10.9265 71.9477 10.9276C71.9496 10.9286 71.9518 10.9291 71.9539 10.929C71.9561 10.9289 71.9582 10.9282 71.9599 10.9269C74.281 9.48324 76.8538 8.00917 79.7212 8.46715C81.7915 8.79794 83.8108 10.0119 85.236 11.5112C87.1312 13.5044 88.2881 16.2167 88.682 18.9684C89.3658 23.7413 87.8877 28.5969 84.4106 31.938C83.2163 33.0855 81.5346 33.7965 79.8912 34.0784C77.1163 34.5544 74.0104 34.0774 71.7295 32.3423C71.7268 32.3403 71.7236 32.339 71.7203 32.3386C71.717 32.3382 71.7136 32.3387 71.7105 32.34C71.7074 32.3414 71.7048 32.3436 71.7028 32.3463C71.7008 32.349 71.6996 32.3522 71.6993 32.3556L71.5293 34.0266C71.5284 34.0347 71.5247 34.0421 71.5187 34.0475C71.5128 34.0528 71.5051 34.0557 71.4972 34.0556L65.087 34.0243C65.0438 34.0239 65.0221 34.002 65.0218 33.9583L64.8438 0.15614C64.8437 0.151839 64.8445 0.147569 64.8461 0.143572C64.8476 0.139575 64.85 0.135929 64.853 0.132845C64.8559 0.12976 64.8595 0.127295 64.8634 0.125592C64.8674 0.123889 64.8716 0.122981 64.8759 0.122919L71.5817 0ZM73.6657 26.6629C74.8274 27.8133 76.1811 28.1868 77.7269 27.7834C79.0086 27.4493 80.0168 26.6824 80.6374 25.4869C81.7363 23.3702 81.7684 20.6987 81.0482 18.4734C80.6832 17.3467 80.0069 16.1882 79.0138 15.5452C77.6202 14.643 75.9716 14.9401 74.5903 15.7103C72.7661 16.7274 71.8367 18.5394 71.6629 20.5853C71.4773 22.7708 72.087 25.1001 73.6657 26.6629Z" fill="white"/>
<path d="M97.6777 24.0911C98.1372 25.691 98.9599 27.0118 100.521 27.6999C101.922 28.3178 103.662 28.268 105.204 27.9856C107.46 27.5727 109.701 26.7716 111.89 25.9506C111.893 25.9493 111.896 25.9489 111.899 25.9493C111.903 25.9497 111.906 25.9509 111.909 25.9528C111.911 25.9547 111.914 25.9573 111.915 25.9603C111.917 25.9633 111.918 25.9666 111.918 25.97C111.908 27.6681 111.825 29.4834 111.38 31.1094C111.316 31.3414 111.167 31.8735 110.944 32.0476C107.098 35.0594 101.416 34.9526 97.179 33.0538C93.7964 31.5374 91.4489 28.4056 90.6427 24.8006C89.9519 21.7111 90.3509 18.4416 91.6118 15.5528C93.5664 11.0746 97.6772 7.76242 102.725 8.25694C104.084 8.38982 105.402 8.75257 106.678 9.34517C112.145 11.8819 113.297 18.3809 113.063 23.7404C113.063 23.7483 113.06 23.7557 113.054 23.7612C113.048 23.7666 113.041 23.7697 113.033 23.7698L97.7027 24.057C97.6798 24.0573 97.6714 24.0687 97.6777 24.0911ZM97.7075 18.8256L106.011 18.8417C106.014 18.8417 106.016 18.8412 106.019 18.8402C106.021 18.8392 106.023 18.8377 106.024 18.8358C106.026 18.8339 106.027 18.8317 106.028 18.8293C106.029 18.8269 106.029 18.8243 106.029 18.8218C105.796 17.1099 104.941 15.3055 103.257 14.6041C101.765 13.9819 100.157 14.4888 99.1143 15.6757C98.3351 16.5618 97.8978 17.6495 97.6891 18.8033C97.6886 18.806 97.6887 18.8088 97.6894 18.8114C97.6901 18.8141 97.6914 18.8166 97.6931 18.8187C97.6949 18.8208 97.6971 18.8225 97.6995 18.8237C97.702 18.8249 97.7047 18.8255 97.7075 18.8256Z" fill="white"/>
<path d="M33.6496 10.9685C33.6497 10.9704 33.6503 10.9721 33.6514 10.9736C33.6525 10.975 33.6539 10.9762 33.6556 10.9768C33.6573 10.9775 33.6592 10.9776 33.6609 10.9772C33.6627 10.9769 33.6644 10.976 33.6656 10.9747C35.6925 8.72848 38.5949 8.14047 41.4822 8.60319C42.5157 8.76866 43.4453 9.17064 44.2708 9.80912C44.9753 10.3544 45.6398 11.1484 46.3137 11.6197C46.3275 11.6292 46.3409 11.6284 46.3538 11.6173C47.8211 10.3511 49.1532 9.04408 51.028 8.61933C51.506 8.5108 52.0215 8.44832 52.5746 8.43186C54.4589 8.37634 56.2685 8.63357 57.8713 9.73271C59.2993 10.7123 60.3331 12.183 60.8115 13.8465C61.3234 15.6252 61.4665 17.5729 61.4424 19.4466C61.4192 21.2296 61.3158 23.0084 61.2294 24.7886C61.1548 26.3319 61.1864 28.0011 61.449 29.5316C61.7276 31.1533 62.4015 32.6763 63.5202 33.8922C63.523 33.8951 63.5248 33.8988 63.5255 33.9028C63.5262 33.9068 63.5257 33.911 63.5241 33.9147C63.5225 33.9184 63.5198 33.9216 63.5165 33.9238C63.5131 33.9261 63.5092 33.9273 63.5051 33.9273L56.5372 33.9951C56.5268 33.9951 56.5166 33.9913 56.5084 33.9842C54.5939 32.3336 54.2464 29.6246 54.1817 27.2626C54.1401 25.7534 54.2128 24.2333 54.2785 22.7246C54.3422 21.2581 54.3932 19.757 54.2218 18.2962C54.0532 16.8591 53.5201 15.2977 51.9069 14.9893C51.3161 14.8768 50.6323 14.8977 50.0666 15.0899C48.4898 15.6257 47.9519 17.283 47.7771 18.8159C47.6076 20.3066 47.6331 21.7431 47.6681 23.2106C47.7087 24.9267 47.6133 26.8431 47.6232 28.3926C47.6317 29.6522 47.9108 30.6616 48.4369 31.812C48.7485 32.4929 49.0753 33.1652 49.4172 33.829C49.4195 33.8334 49.4206 33.8383 49.4204 33.8432C49.4203 33.8481 49.4189 33.8529 49.4164 33.8571C49.4139 33.8614 49.4104 33.8649 49.4061 33.8674C49.4019 33.8698 49.3971 33.8712 49.3922 33.8713L42.4772 34.0084C42.4624 34.0087 42.4498 34.0037 42.4394 33.9932C41.1469 32.6634 40.7459 30.5055 40.6439 28.7158C40.5079 26.3305 40.677 23.9642 40.7351 21.5856C40.7653 20.3403 40.7464 19.0494 40.5131 17.8363C40.2222 16.3238 39.4737 15.0923 37.8091 14.8682C35.6878 14.583 34.7669 16.4496 34.3575 18.178C33.9292 19.9853 33.8267 21.8575 33.8035 23.7094C33.77 26.4316 34.0023 30.0167 34.0108 32.1329C34.0134 32.7349 33.994 33.335 33.9528 33.933C33.9522 33.9425 33.948 33.9515 33.9411 33.9581C33.9342 33.9647 33.925 33.9685 33.9155 33.9686L27.1799 34.0231C27.1597 34.0231 27.1497 34.013 27.1497 33.9928L26.9844 9.03839C26.9841 9.01213 26.997 8.99884 27.0231 8.99852L33.4059 8.90645C33.4132 8.90631 33.4205 8.90785 33.4271 8.91098C33.4338 8.91411 33.4396 8.91873 33.4442 8.92449C33.5402 9.04408 33.5917 9.19374 33.5986 9.37345C33.6194 9.90594 33.6364 10.4376 33.6496 10.9685Z" fill="white"/>
<path d="M10.292 34.4076H9.98506C7.84156 34.3307 5.86806 33.3915 4.25678 31.9976C1.3643 29.4961 0.092087 25.5366 0 21.8039V21.1281C0.074614 18.1619 0.835866 15.0733 2.57277 12.6501C4.18815 10.3961 6.38564 9.03212 9.16525 8.55816C12.011 8.07313 14.9677 8.87471 16.8911 11.092C16.9037 11.1065 16.916 11.1065 16.9279 11.092C16.9868 11.0214 17.0196 10.9387 17.0262 10.8438C17.0682 10.2382 17.0554 9.64212 17.1508 9.03892C17.1606 8.9769 17.1968 8.94558 17.2595 8.94495L23.8009 8.88847C23.8054 8.88841 23.8098 8.88923 23.8139 8.8909C23.818 8.89256 23.8218 8.89504 23.8249 8.89817C23.8281 8.90131 23.8306 8.90504 23.8323 8.90916C23.8341 8.91328 23.8349 8.9177 23.8349 8.92217L23.8878 33.8984C23.8878 33.9256 23.8743 33.9394 23.8472 33.9397L17.2132 34.0085C17.1965 34.0085 17.1881 34.0001 17.1881 33.9833L17.1565 32.0247C17.1565 32.0198 17.1551 32.0151 17.1527 32.0109C17.1502 32.0068 17.1467 32.0033 17.1424 32.001C17.1382 31.9986 17.1335 31.9974 17.1286 31.9975C17.1238 31.9976 17.1191 31.9989 17.115 32.0014C15.031 33.2245 12.7439 34.3037 10.292 34.4076ZM16.8684 19.4894C16.3405 16.9598 14.6201 14.5551 11.7064 15.0629C10.8606 15.2105 10.1631 15.5546 9.4179 15.9684C8.56078 16.4444 8.09987 17.1055 7.77356 18.0158C7.19364 19.6332 7.01136 21.4414 7.33437 23.1565C7.68336 25.0084 8.79501 26.9556 10.6179 27.6893C12.3694 28.3936 14.3585 27.6865 15.54 26.2845C17.0503 24.493 17.3303 21.701 16.8684 19.4894Z" fill="white"/>
<path d="M124.235 25.24C124.235 25.2456 124.236 25.2512 124.24 25.2557C124.243 25.2601 124.248 25.263 124.254 25.2638C124.259 25.2646 124.265 25.2632 124.269 25.2599C124.274 25.2566 124.277 25.2517 124.278 25.2462L129.025 9.0921C129.032 9.06901 129.047 9.0573 129.071 9.05698L136.44 8.91793C136.468 8.9173 136.478 8.93043 136.469 8.95732L128.317 34.0023C128.314 34.0126 128.307 34.0215 128.299 34.0278C128.29 34.0341 128.28 34.0375 128.269 34.0375L120.599 33.9948C120.592 33.9948 120.584 33.9927 120.578 33.9889C120.572 33.985 120.567 33.9795 120.564 33.9729C120.363 33.5585 120.181 33.1383 120.019 32.7124C119.481 31.3042 118.965 29.8886 118.469 28.4658C116.681 23.3409 114.988 18.1844 113.391 12.9965C113.091 12.0241 112.816 11.0431 112.549 10.0612C112.45 9.69673 112.366 9.32608 112.296 8.94925C112.294 8.94337 112.295 8.93732 112.296 8.93158C112.298 8.92584 112.301 8.92056 112.305 8.91616C112.309 8.91175 112.314 8.90833 112.32 8.90617C112.325 8.90401 112.331 8.90316 112.337 8.90369C112.619 8.93169 112.98 8.90986 113.177 8.91034C115.323 8.91508 117.466 8.91144 119.605 8.89942C119.614 8.89927 119.623 8.90213 119.631 8.90754C119.638 8.91295 119.643 8.92061 119.645 8.92932C121.171 14.339 122.697 19.7509 124.224 25.165C124.231 25.1922 124.235 25.2172 124.235 25.24Z" fill="white"/>
</svg>
