<svg width="14" height="13" viewBox="0 0 14 13" fill="none" xmlns="http://www.w3.org/2000/svg">
<path d="M6.99308 2.66842C6.99308 3.01922 6.92399 3.36659 6.78974 3.6907C6.65549 4.0148 6.45872 4.30929 6.21066 4.55734C5.96261 4.8054 5.66812 5.00217 5.34402 5.13642C5.01991 5.27067 4.67254 5.33976 4.32174 5.33976C3.61325 5.33976 2.93378 5.05832 2.43281 4.55734C1.93184 4.05637 1.65039 3.3769 1.65039 2.66842C1.65039 1.95993 1.93184 1.28046 2.43281 0.779489C2.93378 0.278515 3.61325 -0.00292969 4.32174 -0.00292969C5.03022 -0.00292969 5.70969 0.278515 6.21066 0.779489C6.71164 1.28046 6.99308 1.95993 6.99308 2.66842ZM4.72356 4.27883C5.18098 4.19117 5.50989 3.86019 5.57531 3.4051C5.65082 2.87838 5.27743 2.38631 4.76494 2.28366C4.57747 2.24616 4.32587 2.26349 4.11203 2.26064C3.74899 2.25573 3.74822 1.78616 4.09936 1.77814C4.23417 1.77504 4.46602 1.7753 4.79493 1.77892C4.80407 1.77909 4.80898 1.78366 4.80967 1.79262C4.86138 2.35425 5.69245 2.25832 5.56807 1.64239C5.50653 1.33727 5.32475 1.13532 5.02274 1.03654C4.93042 1.00629 4.82234 1.00448 4.72253 0.999827C4.71253 0.999482 4.70753 0.994311 4.70753 0.984312C4.7065 0.907515 4.71012 0.833046 4.67935 0.764782C4.4836 0.329082 3.88914 0.5181 3.93646 0.997241C3.93674 1.00047 3.93586 1.00368 3.934 1.00625C3.93214 1.00883 3.92943 1.01059 3.92637 1.0112C3.55558 1.08964 3.29812 1.28641 3.15401 1.60153C2.91146 2.13213 3.17056 2.75349 3.70296 2.96061C3.93775 3.05188 4.24701 3.04516 4.51257 3.03792C4.61444 3.03534 4.68995 3.05163 4.75123 3.1261C4.84406 3.23883 4.81277 3.41751 4.67986 3.48396C4.63832 3.50465 4.57161 3.51525 4.47973 3.51577C4.27062 3.5168 4.06135 3.5168 3.8519 3.51577C3.8426 3.51577 3.8363 3.51137 3.83303 3.50258C3.82398 3.47828 3.82605 3.44182 3.82088 3.42242C3.69055 2.94121 2.99369 3.07878 3.06842 3.61997C3.12634 4.04016 3.49455 4.31554 3.91732 4.28865C3.92715 4.28796 3.93198 4.29262 3.9318 4.30262C3.92896 4.4981 3.95068 4.64109 4.10298 4.74659C4.32432 4.89967 4.60436 4.78822 4.69072 4.53663C4.71581 4.46397 4.70339 4.37786 4.70805 4.29641C4.70857 4.28658 4.71374 4.28072 4.72356 4.27883Z" fill="#F16422"/>
<path d="M13.2391 6.78252V7.59005C13.2044 8.09919 12.8235 8.46197 12.3144 8.46197C12.091 8.4618 11.8665 8.46154 11.6408 8.4612C11.6368 8.46118 11.6329 8.46242 11.6296 8.46473C11.6263 8.46704 11.6238 8.47032 11.6225 8.47412C11.571 8.62332 11.5177 8.78054 11.4567 8.91422C11.1073 9.67961 10.554 10.2555 9.79692 10.6418C9.78881 10.6459 9.78485 10.6525 9.78502 10.6614C9.79157 10.9658 9.78838 11.2699 9.77545 11.5737C9.77114 11.6721 9.75641 11.7545 9.73124 11.8209C9.39328 12.7083 8.10325 12.4696 8.1004 11.5189C8.09971 11.3491 8.09963 11.1812 8.10014 11.0151C8.10014 11.0117 8.09873 11.0083 8.0962 11.0058C8.09368 11.0034 8.09026 11.002 8.0867 11.002H4.95819C4.94957 11.002 4.94526 11.0064 4.94526 11.0151C4.94612 11.1881 4.945 11.3609 4.9419 11.5336C4.93492 11.9233 4.67867 12.2599 4.30503 12.3512C3.74444 12.4883 3.25624 12.0606 3.25805 11.4992C3.25892 11.2324 3.25874 10.9637 3.25754 10.6932C3.25747 10.6892 3.2563 10.6853 3.25415 10.6819C3.25201 10.6785 3.24897 10.6758 3.24538 10.6741C2.00603 10.0853 1.22772 8.87699 1.20522 7.51145C1.20057 7.22495 1.20979 6.93974 1.23289 6.65582C1.23306 6.65403 1.23255 6.65222 1.23147 6.65071C1.23038 6.6492 1.22878 6.64808 1.22694 6.64755C0.564471 6.45827 0.15549 6.02843 0 5.35803V5.31174C0.0561109 4.94379 0.484312 4.79899 0.704619 5.11083C0.766418 5.19823 0.779089 5.32002 0.828735 5.42009C0.94837 5.66177 1.13972 5.81769 1.40277 5.88785C1.40689 5.88898 1.41128 5.88854 1.41506 5.88662C1.41884 5.88471 1.42175 5.88146 1.4232 5.87751C1.52887 5.59549 1.66695 5.33019 1.83744 5.08161C1.84382 5.07213 1.85106 5.07153 1.85916 5.0798C3.73719 6.97206 6.91638 6.1516 7.64402 3.58498C7.64542 3.57998 7.64841 3.57558 7.65252 3.57245C7.65663 3.56933 7.66163 3.56764 7.66677 3.56765L8.69409 3.56843C8.69772 3.56844 8.70127 3.56734 8.70427 3.56526C8.70728 3.56318 8.70959 3.56023 8.7109 3.55679C8.88828 3.08084 9.20702 2.79244 9.66711 2.6916C9.77571 2.66781 9.94715 2.65608 10.1814 2.65643C10.4741 2.65669 10.7785 2.64066 11.0694 2.67039C11.5516 2.71978 11.9374 3.043 12.113 3.47896C12.2138 3.72926 12.1642 3.94776 11.9059 4.06334C11.5199 4.23624 11.1318 4.40863 10.7415 4.58049C10.739 4.58159 10.7369 4.58326 10.7352 4.58538C10.7335 4.5875 10.7324 4.58999 10.7319 4.59264C10.7315 4.59529 10.7316 4.59802 10.7324 4.60059C10.7332 4.60316 10.7347 4.60549 10.7366 4.60738C11.1141 4.99008 11.3497 5.40044 11.5555 5.89483C11.5589 5.90328 11.5652 5.9075 11.5744 5.9075C11.8157 5.90888 12.0559 5.90845 12.295 5.90621C12.8181 5.9013 13.1995 6.25399 13.2391 6.78252ZM9.87087 5.74357C9.87087 5.64159 9.83036 5.54379 9.75825 5.47168C9.68614 5.39957 9.58834 5.35906 9.48637 5.35906C9.38439 5.35906 9.28659 5.39957 9.21448 5.47168C9.14237 5.54379 9.10186 5.64159 9.10186 5.74357C9.10186 5.84554 9.14237 5.94334 9.21448 6.01545C9.28659 6.08756 9.38439 6.12807 9.48637 6.12807C9.58834 6.12807 9.68614 6.08756 9.75825 6.01545C9.83036 5.94334 9.87087 5.84554 9.87087 5.74357Z" fill="#F16422"/>
</svg>
