<svg width="147" height="27" viewBox="0 0 147 27" fill="none" xmlns="http://www.w3.org/2000/svg">
<path d="M83.0639 13.0672C83.0256 13.045 82.9892 13.0339 82.9549 13.0339C82.9004 13.0299 82.855 13.0077 82.8187 12.9673C80.7961 10.6177 78.7795 7.44452 75.6336 10.9144C75.0583 11.5503 74.482 12.1972 73.9047 12.8553C73.8441 12.9239 73.8421 12.9946 73.8986 13.0672C75.9636 15.7741 78.0165 18.5567 80.9838 15.4229C81.6661 14.7043 82.3372 13.9726 82.9973 13.2277C84.7595 15.1353 86.4813 17.0226 88.1628 18.8898C89.9038 20.8216 90.6578 23.259 88.4353 25.1696C86.6065 26.7471 84.593 26.2566 83.0276 24.6276C81.2492 22.7786 79.9987 21.408 79.2761 20.5158C78.5585 19.6347 77.9075 19.9253 77.2414 20.6672C75.9242 22.1387 73.3354 25.5814 71.4915 26.0567C68.5635 26.8107 66.2866 23.4407 67.1374 20.9185C67.3413 20.3129 67.9226 19.4853 68.8815 18.4356C70.4943 16.6734 72.096 14.9001 73.6867 13.1157C73.7593 13.0309 73.7573 12.9481 73.6806 12.8674C71.8376 10.9215 70.0563 8.95037 68.3364 6.95401C66.8165 5.18877 66.2836 2.91183 68.1487 1.18595C69.4043 0.021239 70.6881 -0.285583 72.0001 0.265486C73.7957 1.01639 76.221 4.26831 77.744 5.91849C77.8344 6.01656 77.9442 6.09484 78.0664 6.14837C78.1886 6.20191 78.3206 6.22955 78.454 6.22955C78.5874 6.22955 78.7194 6.20191 78.8416 6.14837C78.9638 6.09484 79.0736 6.01656 79.164 5.91849C80.6941 4.25922 82.1646 2.64639 83.5756 1.07998C83.9672 0.645986 84.5183 0.338154 85.2288 0.156483C88.0811 -0.573229 90.3853 2.51821 89.6889 5.07674C89.5173 5.70855 89.0066 6.50286 88.1568 7.45966C86.4793 9.34702 84.7817 11.2162 83.0639 13.0672Z" fill="white"/>
<path d="M7.45275 9.43374C4.45518 9.33685 1.52119 8.64347 0.0193783 11.5472C0.00322971 9.19151 -0.002826 6.8964 0.00121114 4.66185C0.00726684 1.44324 1.74525 0.401662 4.72769 0.398634C8.30459 0.394597 11.8795 0.392578 15.4523 0.392578C16.9723 0.392578 18.0099 0.514701 18.565 0.758948C21.3748 1.99128 21.3748 6.00016 18.6558 7.24763C18.0523 7.52216 17.0379 7.66043 15.6128 7.66245C13.2955 7.66447 10.9762 7.66346 8.65481 7.65942C7.3922 7.65639 7.17419 8.31949 7.45275 9.43374Z" fill="white"/>
<path d="M30.4338 8.91635C29.5103 8.60448 28.4203 8.1715 27.4726 8.2805C25.6256 8.49851 24.4992 9.53403 24.0935 11.3871C23.9451 12.0562 24.2055 12.7678 24.2085 13.4975C22.9399 11.4416 23.1246 9.11013 23.1518 6.30029C23.174 4.29181 23.2467 3.08572 23.3698 2.682C24.0329 0.538286 26.0495 0.405061 28.1871 0.399005C30.8093 0.392949 33.4354 0.39194 36.0656 0.395977C37.2808 0.397996 38.1801 0.541314 38.7634 0.825932C41.5763 2.19755 41.3432 6.26395 38.4152 7.38729C36.6803 8.05341 33.0135 7.66888 31.0999 7.65979C30.9626 7.65877 30.8196 7.70177 30.6841 7.78483C30.5487 7.8679 30.4251 7.98836 30.3248 8.13516C30.2098 8.30069 30.2461 8.56108 30.4338 8.91635Z" fill="white"/>
<path d="M52.4323 9.37588C49.8133 9.42736 46.2798 8.56442 45.0474 11.5953C45.0212 9.08622 45.0313 6.57512 45.0777 4.062C45.1292 1.22793 47.1427 0.407386 49.6376 0.401331C53.7353 0.391238 57.831 0.394266 61.9247 0.410414C66.1122 0.422526 67.178 6.11489 63.2266 7.42897C62.7906 7.57431 62.0528 7.649 61.0133 7.65304C58.6213 7.66717 56.2273 7.66918 53.8312 7.65909C52.5323 7.65304 52.1296 8.0406 52.4323 9.37588Z" fill="white"/>
<path d="M123.571 2.57605C123.486 2.58614 123.43 2.55081 123.404 2.47007C123.346 2.29042 123.389 2.1582 123.534 2.07342C123.942 1.83321 124.333 1.83624 124.706 2.08251C124.795 2.14104 124.892 2.16022 124.997 2.14004L125.49 2.0492C125.548 2.03904 125.607 2.04877 125.658 2.07679C125.71 2.1048 125.75 2.14943 125.772 2.20333C125.795 2.25724 125.799 2.31721 125.782 2.37339C125.766 2.42958 125.732 2.47862 125.684 2.51246C125.254 2.81323 124.816 2.82332 124.37 2.54274C124.321 2.51328 124.262 2.50054 124.203 2.50641L123.571 2.57605Z" fill="white"/>
<path d="M118.451 4.99486C118.639 2.92381 121.115 2.66341 122.015 4.48315C122.031 4.51568 122.039 4.55131 122.039 4.58754C122.04 4.62377 122.032 4.65972 122.017 4.69289C122.002 4.72606 121.98 4.75564 121.953 4.77956C121.925 4.80347 121.892 4.82115 121.857 4.83135C121.373 4.96861 121.039 4.82126 120.855 4.38929C120.836 4.34281 120.807 4.30109 120.771 4.26707C120.734 4.23306 120.691 4.20759 120.643 4.19248C118.923 3.64443 118.802 7.46558 120.419 7.4565C120.479 7.45642 120.538 7.43257 120.583 7.38989L121.109 6.86001C121.186 6.78331 121.28 6.74596 121.391 6.74798L121.939 6.75707C122.074 6.75908 122.117 6.82267 122.066 6.94782C121.586 8.14079 120.695 8.52836 119.393 8.11052C118.26 7.74415 118.357 6.01524 118.451 4.99486Z" fill="white"/>
<path d="M130.793 6.57829C130.793 7.02477 130.616 7.45297 130.3 7.76869C129.984 8.0844 129.556 8.26177 129.11 8.26177H128.861C128.415 8.26177 127.987 8.0844 127.671 7.76869C127.355 7.45297 127.178 7.02477 127.178 6.57829V4.97352C127.178 4.52704 127.355 4.09884 127.671 3.78312C127.987 3.46741 128.415 3.29004 128.861 3.29004H129.11C129.556 3.29004 129.984 3.46741 130.3 3.78312C130.616 4.09884 130.793 4.52704 130.793 4.97352V6.57829ZM129.809 4.93113C129.809 4.71994 129.725 4.51739 129.576 4.36805C129.426 4.21871 129.224 4.13481 129.013 4.13481H128.916C128.705 4.13481 128.502 4.21871 128.353 4.36805C128.203 4.51739 128.119 4.71994 128.119 4.93113V6.61462C128.119 6.7192 128.14 6.82275 128.18 6.91936C128.22 7.01597 128.279 7.10376 128.353 7.17771C128.427 7.25165 128.514 7.31031 128.611 7.35033C128.708 7.39035 128.811 7.41094 128.916 7.41094H129.013C129.117 7.41094 129.221 7.39035 129.317 7.35033C129.414 7.31031 129.502 7.25165 129.576 7.17771C129.65 7.10376 129.708 7.01597 129.748 6.91936C129.788 6.82275 129.809 6.7192 129.809 6.61462V4.93113Z" fill="white"/>
<path d="M97.0259 5.39146H98.6155C98.6557 5.39186 98.6944 5.4068 98.7245 5.43351C98.7545 5.46023 98.7739 5.49691 98.779 5.53679L98.8426 6.03639C98.8456 6.05972 98.8436 6.08341 98.8368 6.10592C98.83 6.12843 98.8184 6.14923 98.803 6.16697C98.7876 6.1847 98.7685 6.19896 98.7472 6.20881C98.7258 6.21866 98.7026 6.22388 98.6791 6.22412H97.0198C96.9974 6.2241 96.9753 6.2286 96.9547 6.23734C96.9341 6.24609 96.9154 6.2589 96.8999 6.27501C96.8843 6.29112 96.8722 6.3102 96.8642 6.33111C96.8562 6.35202 96.8525 6.37433 96.8533 6.3967L96.9108 8.09533C96.9116 8.1177 96.9079 8.14001 96.8999 8.16092C96.8919 8.18183 96.8798 8.20091 96.8642 8.21702C96.8487 8.23313 96.8301 8.24594 96.8095 8.25469C96.7888 8.26343 96.7667 8.26793 96.7443 8.26792H96.0025C95.9583 8.26792 95.9159 8.25037 95.8847 8.21914C95.8535 8.18791 95.8359 8.14555 95.8359 8.10138V3.51419C95.8359 3.49232 95.8402 3.47066 95.8486 3.45046C95.857 3.43025 95.8693 3.4119 95.8847 3.39643C95.9002 3.38097 95.9185 3.3687 95.9387 3.36033C95.9589 3.35196 95.9806 3.34766 96.0025 3.34766H99.0031C99.0252 3.34765 99.0471 3.35206 99.0675 3.36062C99.0879 3.36917 99.1064 3.38171 99.1219 3.3975C99.1374 3.41328 99.1496 3.432 99.1578 3.45256C99.166 3.47311 99.17 3.49509 99.1696 3.51722L99.1575 4.01681C99.1567 4.06045 99.1388 4.10204 99.1077 4.13261C99.0765 4.16319 99.0346 4.18032 98.991 4.18032H97.0017C96.9795 4.18031 96.9576 4.18472 96.9372 4.19328C96.9168 4.20183 96.8983 4.21437 96.8828 4.23016C96.8673 4.24594 96.8551 4.26466 96.8469 4.28522C96.8387 4.30577 96.8347 4.32775 96.8351 4.34988L96.8594 5.22795C96.8601 5.27159 96.878 5.31318 96.9092 5.34376C96.9403 5.37433 96.9822 5.39146 97.0259 5.39146Z" fill="white"/>
<path d="M103.296 7.55031C102.542 8.52831 100.928 8.52225 100.256 7.54729C99.6867 6.72371 99.9198 4.58908 99.9228 3.50208C99.9249 3.39913 99.9763 3.34766 100.077 3.34766H100.756C100.856 3.34766 100.907 3.39812 100.907 3.49905V6.67527C100.907 6.86087 100.974 7.04012 101.097 7.17946C101.22 7.31879 101.389 7.40866 101.573 7.43223C103.157 7.62904 102.654 4.43163 102.642 3.52024C102.642 3.40519 102.698 3.34766 102.811 3.34766H103.414C103.543 3.34766 103.604 3.41124 103.596 3.53841C103.553 4.43163 103.771 6.93263 103.296 7.55031Z" fill="white"/>
<path d="M107.541 6.00914L107.474 3.55052C107.47 3.41528 107.536 3.34766 107.671 3.34766H108.289C108.414 3.34766 108.477 3.41124 108.477 3.53841V7.83796C108.476 7.94984 108.44 8.05867 108.373 8.14814C108.306 8.23761 108.211 8.30292 108.104 8.33429C107.997 8.36565 107.882 8.36139 107.777 8.32213C107.672 8.28287 107.583 8.21074 107.523 8.11652L105.858 5.50046C105.844 5.47874 105.823 5.46208 105.799 5.45298C105.775 5.44388 105.749 5.44284 105.725 5.45003C105.7 5.45721 105.678 5.47223 105.663 5.4928C105.648 5.51337 105.639 5.53838 105.64 5.56404L105.691 8.06808C105.693 8.2013 105.627 8.26792 105.494 8.26792H104.88C104.754 8.26792 104.691 8.20433 104.689 8.07716L104.68 3.51419C104.68 3.49232 104.684 3.47066 104.692 3.45046C104.701 3.43025 104.713 3.4119 104.728 3.39643C104.744 3.38097 104.762 3.3687 104.782 3.36033C104.803 3.35196 104.824 3.34766 104.846 3.34766H105.379C105.506 3.34766 105.605 3.40115 105.676 3.50813L107.323 6.07575C107.337 6.09771 107.357 6.11452 107.382 6.12357C107.406 6.13263 107.433 6.13343 107.457 6.12585C107.482 6.11827 107.504 6.10273 107.519 6.08164C107.534 6.06054 107.542 6.03506 107.541 6.00914Z" fill="white"/>
<path d="M109.666 3.48733C109.666 3.44718 109.682 3.40867 109.711 3.38028C109.739 3.35189 109.777 3.33594 109.818 3.33594L111.543 3.33897C111.996 3.33978 112.43 3.51792 112.75 3.8342C113.07 4.15048 113.249 4.579 113.248 5.02548V6.57574C113.248 6.79682 113.203 7.01566 113.117 7.21976C113.031 7.42386 112.905 7.60923 112.746 7.76527C112.587 7.92132 112.399 8.04499 112.191 8.12922C111.984 8.21345 111.762 8.2566 111.537 8.2562L109.812 8.25317C109.771 8.25317 109.733 8.23722 109.705 8.20883C109.676 8.18043 109.66 8.14193 109.66 8.10178L109.666 3.48733ZM110.602 4.42294L110.584 7.148C110.583 7.1826 110.59 7.21693 110.603 7.24904C110.615 7.28116 110.634 7.31042 110.659 7.33516C110.683 7.35991 110.712 7.37964 110.743 7.39325C110.775 7.40685 110.809 7.41406 110.844 7.41445L111.283 7.41748C111.419 7.41861 111.554 7.39051 111.681 7.33479C111.807 7.27907 111.922 7.19682 112.019 7.09276C112.116 6.98869 112.193 6.86486 112.246 6.72834C112.299 6.59182 112.327 6.4453 112.328 6.29718L112.334 5.29799C112.336 4.99969 112.228 4.71293 112.036 4.50063C111.844 4.28833 111.582 4.16783 111.307 4.16557L110.868 4.16254C110.834 4.16214 110.799 4.16856 110.767 4.18143C110.735 4.1943 110.706 4.21337 110.681 4.23755C110.656 4.26173 110.637 4.29055 110.623 4.32236C110.609 4.35417 110.602 4.38834 110.602 4.42294Z" fill="white"/>
<path d="M113.699 8.06833L115.319 3.65978C115.357 3.55674 115.425 3.46784 115.515 3.40505C115.605 3.34226 115.712 3.30859 115.821 3.30859C115.931 3.30859 116.039 3.34226 116.129 3.40505C116.22 3.46784 116.289 3.55674 116.328 3.65978L117.975 8.08347C118.021 8.20661 117.979 8.26817 117.848 8.26817H117.209C117.073 8.26817 116.988 8.20257 116.951 8.07136L116.8 7.52332C116.77 7.41432 116.698 7.35982 116.585 7.35982H115.065C114.95 7.35982 114.88 7.41634 114.856 7.52938L114.738 8.10164C114.728 8.14956 114.701 8.1925 114.662 8.22334C114.624 8.25418 114.576 8.27107 114.526 8.2712L113.833 8.26212C113.697 8.26212 113.653 8.19752 113.699 8.06833ZM115.25 6.4121C115.244 6.42732 115.243 6.44355 115.245 6.45948C115.247 6.47542 115.253 6.49062 115.262 6.50387C115.271 6.51712 115.284 6.52804 115.298 6.53577C115.312 6.54349 115.327 6.5478 115.344 6.54835L116.303 6.56349C116.32 6.56373 116.336 6.56013 116.35 6.55297C116.365 6.54582 116.378 6.53532 116.387 6.52232C116.397 6.50933 116.404 6.49422 116.406 6.47822C116.409 6.46222 116.408 6.44579 116.403 6.43027L115.946 4.98295C115.939 4.96288 115.926 4.94541 115.909 4.93294C115.892 4.92046 115.871 4.91359 115.85 4.91325C115.829 4.91292 115.808 4.91915 115.791 4.93108C115.773 4.94302 115.76 4.96008 115.752 4.97993L115.25 6.4121Z" fill="white"/>
<path d="M122.429 8.07431L124.043 3.66575C124.082 3.56189 124.151 3.47214 124.242 3.40863C124.333 3.34511 124.441 3.31088 124.551 3.31055C124.662 3.31022 124.77 3.34381 124.86 3.40678C124.951 3.46976 125.019 3.55909 125.057 3.66273L126.695 8.07128C126.704 8.09513 126.707 8.12069 126.703 8.14572C126.7 8.17076 126.69 8.19449 126.675 8.21483C126.661 8.23517 126.641 8.2515 126.619 8.26237C126.597 8.27324 126.572 8.27832 126.547 8.27717L125.899 8.24992C125.78 8.24387 125.705 8.18432 125.675 8.07128L125.527 7.52929C125.494 7.41625 125.42 7.35973 125.303 7.35973H123.825C123.71 7.35973 123.639 7.41625 123.613 7.52929L123.495 8.03192C123.482 8.0869 123.452 8.1363 123.409 8.17283C123.366 8.20935 123.312 8.23107 123.256 8.23478L122.584 8.2802C122.426 8.29231 122.375 8.22368 122.429 8.07431ZM123.983 6.41202C123.977 6.42764 123.975 6.44446 123.977 6.46104C123.979 6.47761 123.985 6.49343 123.994 6.50714C124.004 6.52085 124.017 6.53203 124.031 6.53972C124.046 6.54742 124.063 6.55139 124.079 6.5513L125.045 6.56644C125.062 6.56668 125.078 6.56307 125.092 6.55592C125.107 6.54876 125.119 6.53826 125.129 6.52527C125.139 6.51228 125.145 6.49716 125.148 6.48116C125.151 6.46516 125.15 6.44873 125.145 6.43321L124.688 5.01315C124.682 4.99199 124.669 4.97336 124.652 4.96C124.634 4.94663 124.613 4.93924 124.591 4.9389C124.569 4.93856 124.547 4.94529 124.529 4.95811C124.511 4.97093 124.498 4.98916 124.491 5.01012L123.983 6.41202Z" fill="white"/>
<path d="M30.4348 8.91671C32.6431 9.50411 34.8636 10.0956 37.0961 10.691C37.7784 10.8727 38.4495 11.2714 39.1096 11.887C40.7446 14.3941 39.7182 17.3765 36.7721 17.8882C35.7578 18.0669 34.5951 17.6581 33.6141 17.3069C31.2483 16.6953 28.8765 16.0544 26.4986 15.3842C25.7114 15.1622 24.9483 14.5334 24.2096 13.4978C24.2065 12.7681 23.9461 12.0566 24.0945 11.3874C24.5002 9.53439 25.6266 8.49886 27.4736 8.28086C28.4213 8.17186 29.5113 8.60484 30.4348 8.91671Z" fill="white"/>
<path d="M119.661 9.43992C119.692 8.96555 119.91 8.69607 120.315 8.63148C120.346 8.62675 120.377 8.62856 120.407 8.6368C120.437 8.64504 120.464 8.65951 120.488 8.67927C120.512 8.69903 120.531 8.72361 120.545 8.75139C120.558 8.77917 120.566 8.80951 120.567 8.8404C120.581 9.31678 120.381 9.60342 119.967 9.70031C119.749 9.75078 119.647 9.66398 119.661 9.43992Z" fill="white"/>
<path d="M52.432 9.37663C52.4259 9.3847 52.4209 9.39379 52.4169 9.40388C52.431 11.705 52.4401 14.0062 52.4441 16.3074C52.4441 16.3437 52.4229 16.4679 52.3805 16.6798C52.3462 16.8413 52.3967 16.9705 52.5319 17.0674L52.4259 17.2763C52.4001 17.3261 52.3866 17.3811 52.3866 17.4368C52.3957 19.2293 52.7408 22.4085 51.9294 23.8982C50.5033 26.5112 46.564 26.3629 45.4195 23.662C45.1672 23.0666 45.041 22.0179 45.041 20.5161C45.043 17.5468 45.045 14.5734 45.0471 11.596C46.2794 8.56516 49.8129 9.4281 52.432 9.37663Z" fill="white"/>
<path d="M7.45365 9.43411L7.44154 17.14C7.41731 18.6317 7.41126 20.1416 7.42337 21.6697C7.4597 27.1107 0.0444944 27.2803 0.0142159 21.4517C-0.00395119 18.0887 -0.00193262 14.7874 0.0202716 11.5476C1.52209 8.64385 4.45607 9.33722 7.45365 9.43411Z" fill="white"/>
<path d="M7.44141 17.1401L7.45352 9.43424C10.3017 9.37368 12.0821 9.36561 12.7946 9.41002C14.8566 9.53719 16.6612 11.1298 16.4765 13.2826C16.1132 17.5216 10.9355 16.689 8.1802 16.6678C8.08253 16.6658 7.98697 16.6991 7.91072 16.7616L7.44141 17.1401Z" fill="white"/>
<path d="M52.4159 9.40332C54.2084 9.40332 56.015 9.40332 57.8357 9.40332C61.7114 9.40029 62.9286 14.8958 59.1801 16.3825C57.7025 16.9669 54.8896 16.6792 53.2092 16.6671C53.1153 16.6651 53.0235 16.695 52.9488 16.7519L52.531 17.0668C52.3957 16.9699 52.3452 16.8407 52.3796 16.6792C52.4219 16.4673 52.4431 16.3432 52.4431 16.3068C52.4391 14.0057 52.43 11.7045 52.4159 9.40332Z" fill="white"/>
<path d="M83.0637 13.0678C83.0475 13.2333 83.0253 13.2868 82.997 13.2282C82.337 13.9731 81.6658 14.7048 80.9835 15.4234C78.0162 18.5573 75.9633 15.7747 73.8983 13.0678C73.8418 12.9951 73.8438 12.9244 73.9044 12.8558C74.4817 12.1978 75.058 11.5508 75.6333 10.915C78.7792 7.44504 80.7958 10.6182 82.8184 12.9678C82.8547 13.0082 82.9001 13.0304 82.9546 13.0345C82.989 13.0345 83.0253 13.0456 83.0637 13.0678Z" fill="white"/>
<path d="M101.949 10.6209L102.388 10.4937C102.418 10.4845 102.45 10.4848 102.48 10.4946C102.51 10.5045 102.536 10.5233 102.555 10.5486C102.573 10.5739 102.584 10.6044 102.584 10.6357C102.585 10.6671 102.576 10.6979 102.558 10.7239C102.414 10.9419 102.197 11.0589 101.907 11.0751C101.792 11.083 101.679 11.046 101.592 10.9721C101.309 10.7319 101.001 10.7067 100.668 10.8965C100.634 10.9168 100.593 10.9238 100.553 10.9161C100.513 10.9085 100.478 10.8868 100.453 10.855C100.428 10.8232 100.416 10.7834 100.418 10.7432C100.421 10.7029 100.437 10.6649 100.466 10.6361C100.831 10.2626 101.247 10.2434 101.713 10.5785C101.786 10.631 101.864 10.6451 101.949 10.6209Z" fill="white"/>
<path d="M96.9117 14.2303C94.3986 13.6096 96.2153 10.4879 98.6406 11.9685C98.7698 12.0452 98.7849 12.1411 98.686 12.2561L98.574 12.3863C98.5235 12.4429 98.468 12.4489 98.4074 12.4045C97.7918 11.9584 97.1569 11.9251 96.5029 12.3046C96.4312 12.3452 96.378 12.4114 96.3545 12.4893C95.9246 13.8458 97.1993 13.7186 97.9835 13.9427C100.466 14.6542 98.2288 17.8304 95.7217 16.0955C95.6989 16.0799 95.6798 16.0594 95.6659 16.0354C95.652 16.0115 95.6436 15.9847 95.6413 15.9569C95.639 15.9291 95.6428 15.9011 95.6525 15.8748C95.6622 15.8485 95.6776 15.8246 95.6975 15.8048L95.8035 15.6988C95.8842 15.6181 95.971 15.611 96.0639 15.6776C96.7239 16.156 98.6436 16.4376 98.4862 15.0781C98.3953 14.2939 97.4688 14.3696 96.9117 14.2303Z" fill="white"/>
<path d="M101.235 11.7958C101.27 11.6969 101.351 11.6253 101.481 11.5809C101.549 11.5589 101.624 11.5639 101.689 11.5949C101.754 11.6259 101.804 11.6805 101.829 11.7474L103.518 16.3134C103.553 16.4042 103.525 16.4668 103.437 16.5011C103.307 16.5516 103.19 16.5395 103.085 16.4648C103.015 16.4143 102.958 16.3245 102.916 16.1953C102.849 15.9975 102.78 15.8007 102.707 15.6049C102.671 15.508 102.601 15.4595 102.498 15.4595H100.618C100.527 15.4595 100.463 15.4999 100.427 15.5806C100.269 15.9258 100.209 16.6525 99.6367 16.5163C99.5519 16.4961 99.5246 16.4446 99.5549 16.3618C100.136 14.8519 100.696 13.3299 101.235 11.7958ZM100.657 14.86C100.652 14.8741 100.651 14.889 100.653 14.9037C100.655 14.9184 100.661 14.9324 100.669 14.9445C100.678 14.9566 100.689 14.9665 100.702 14.9734C100.715 14.9803 100.73 14.984 100.745 14.9842L102.353 14.9932C102.368 14.9936 102.383 14.9902 102.396 14.9836C102.41 14.9769 102.421 14.967 102.43 14.9548C102.439 14.9426 102.445 14.9285 102.447 14.9136C102.45 14.8986 102.448 14.8834 102.443 14.8691L101.65 12.6315C101.644 12.6125 101.633 12.5958 101.617 12.5839C101.601 12.5719 101.582 12.5653 101.562 12.565C101.542 12.5646 101.523 12.5706 101.506 12.582C101.49 12.5934 101.478 12.6097 101.472 12.6285L100.657 14.86Z" fill="white"/>
<path d="M107.614 14.9657C107.613 15.1768 107.571 15.3857 107.489 15.5805C107.408 15.7753 107.289 15.9521 107.139 16.1009C106.989 16.2497 106.811 16.3675 106.616 16.4476C106.421 16.5277 106.211 16.5686 106 16.5678L105.77 16.567C105.344 16.5655 104.935 16.3947 104.635 16.0921C104.334 15.7896 104.166 15.38 104.168 14.9536L104.174 13.2096C104.175 12.9985 104.217 12.7896 104.299 12.5948C104.38 12.4 104.499 12.2232 104.649 12.0744C104.799 11.9256 104.976 11.8078 105.172 11.7277C105.367 11.6476 105.576 11.6067 105.787 11.6074L106.018 11.6082C106.444 11.6097 106.852 11.7806 107.153 12.0831C107.453 12.3857 107.621 12.7952 107.62 13.2216L107.614 14.9657ZM107.044 13.1672C107.044 12.8765 106.929 12.5977 106.723 12.3921C106.518 12.1866 106.239 12.0711 105.948 12.0711H105.803C105.512 12.0711 105.234 12.1866 105.028 12.3921C104.822 12.5977 104.707 12.8765 104.707 13.1672V14.9718C104.707 15.2625 104.822 15.5413 105.028 15.7468C105.234 15.9524 105.512 16.0679 105.803 16.0679H105.948C106.239 16.0679 106.518 15.9524 106.723 15.7468C106.929 15.5413 107.044 15.2625 107.044 14.9718V13.1672Z" fill="white"/>
<path d="M111.126 14.5508V16.3675C111.126 16.4684 111.075 16.5189 110.974 16.5189H110.823C110.671 16.5189 110.596 16.4432 110.596 16.2918V11.75C110.596 11.7099 110.612 11.6714 110.64 11.643C110.668 11.6146 110.707 11.5986 110.747 11.5986H113.545C113.577 11.5986 113.608 11.6058 113.637 11.6198C113.665 11.6337 113.69 11.654 113.71 11.6792C113.73 11.7043 113.743 11.7336 113.75 11.7647C113.756 11.7959 113.756 11.8282 113.748 11.859C113.693 12.075 113.526 12.1749 113.245 12.1588C112.589 12.1204 111.933 12.1134 111.277 12.1376C111.176 12.1416 111.126 12.1941 111.126 12.295V13.6394C111.126 13.7646 111.187 13.8322 111.31 13.8423C112.079 13.9028 112.572 13.9109 112.788 13.8665C113.058 13.812 113.243 13.8766 113.342 14.0603C113.361 14.0949 113.371 14.1339 113.37 14.1733C113.369 14.2128 113.358 14.2514 113.338 14.2853C113.318 14.3193 113.289 14.3474 113.255 14.3668C113.22 14.3863 113.182 14.3965 113.142 14.3964L111.277 14.3994C111.176 14.4014 111.126 14.4519 111.126 14.5508Z" fill="white"/>
<path d="M115.214 14.5511V16.2891C115.214 16.382 115.172 16.4486 115.089 16.489C114.946 16.5616 114.829 16.5556 114.738 16.4708C114.68 16.4163 114.652 16.3265 114.656 16.2013C114.691 14.8812 114.689 13.3955 114.65 11.7443C114.65 11.7103 114.662 11.6773 114.685 11.6524C114.709 11.6275 114.741 11.6127 114.775 11.6111C115.768 11.5717 117.239 11.3446 117.902 12.3015C118.268 12.8303 118.182 13.3834 117.645 13.9607C117.572 14.0394 117.487 14.099 117.388 14.1394L117.139 14.2423C117.002 14.2968 116.97 14.3887 117.042 14.5178L118.039 16.271C118.058 16.3056 118.067 16.3449 118.066 16.3845C118.064 16.4241 118.052 16.4624 118.031 16.4953C118.009 16.5283 117.979 16.5544 117.943 16.5709C117.908 16.5874 117.869 16.5936 117.83 16.5889C117.707 16.5748 117.612 16.5112 117.545 16.3981C117.172 15.7784 116.809 15.1517 116.458 14.5178C116.416 14.4391 116.35 14.3998 116.261 14.3998H115.365C115.264 14.3998 115.214 14.4502 115.214 14.5511ZM115.201 12.3438L115.208 13.6579C115.208 13.687 115.213 13.7157 115.224 13.7425C115.235 13.7693 115.252 13.7937 115.272 13.8142C115.293 13.8347 115.317 13.851 115.344 13.8621C115.371 13.8732 115.4 13.879 115.429 13.879L116.6 13.8759C116.854 13.875 117.097 13.7849 117.276 13.6253C117.455 13.4658 117.555 13.2499 117.554 13.0251V12.9646C117.554 12.8532 117.529 12.743 117.48 12.6403C117.432 12.5375 117.361 12.4443 117.272 12.3658C117.183 12.2874 117.077 12.2253 116.961 12.183C116.845 12.1408 116.72 12.1193 116.594 12.1198L115.423 12.1228C115.364 12.1228 115.308 12.1461 115.266 12.1875C115.225 12.229 115.201 12.2852 115.201 12.3438Z" fill="white"/>
<path d="M121.649 15.4591H119.754C119.647 15.4591 119.572 15.5086 119.53 15.6075C119.447 15.8053 119.373 16.0052 119.309 16.207C119.258 16.3665 119.19 16.4694 119.106 16.5159C119.009 16.5704 118.904 16.5693 118.791 16.5128C118.696 16.4664 118.668 16.3947 118.706 16.2979L120.417 11.7379C120.429 11.7043 120.449 11.6739 120.475 11.6488C120.5 11.6238 120.531 11.6047 120.565 11.5928C120.599 11.581 120.636 11.5767 120.672 11.5804C120.708 11.584 120.743 11.5954 120.774 11.6138C120.877 11.6723 120.951 11.7611 120.995 11.8802C121.546 13.3538 122.097 14.8273 122.648 16.3009C122.703 16.4462 122.653 16.5189 122.5 16.5189H122.315C122.202 16.5189 122.127 16.4654 122.091 16.3584L121.831 15.5893C121.8 15.5025 121.74 15.4591 121.649 15.4591ZM119.775 14.8778C119.77 14.8918 119.769 14.9068 119.771 14.9215C119.773 14.9362 119.778 14.9502 119.787 14.9623C119.796 14.9744 119.807 14.9843 119.82 14.9912C119.833 14.9981 119.848 15.0018 119.863 15.0019L121.492 15.008C121.506 15.0078 121.521 15.0041 121.534 14.9972C121.547 14.9904 121.559 14.9804 121.567 14.9683C121.576 14.9562 121.581 14.9422 121.583 14.9276C121.586 14.9129 121.584 14.8979 121.579 14.8838L120.774 12.6311C120.767 12.6133 120.755 12.5979 120.74 12.5871C120.724 12.5762 120.705 12.5704 120.686 12.5704C120.667 12.5704 120.649 12.5762 120.633 12.5871C120.617 12.5979 120.605 12.6133 120.598 12.6311L119.775 14.8778Z" fill="white"/>
<path d="M126.484 15.2716C126.501 15.2973 126.527 15.3166 126.556 15.3263C126.586 15.336 126.617 15.3356 126.647 15.3252C126.676 15.3148 126.701 15.2949 126.717 15.2687C126.734 15.2426 126.741 15.2116 126.738 15.1807C126.666 14.1997 126.702 13.1823 126.617 12.1832C126.601 11.9813 126.642 11.8117 126.738 11.6745C126.769 11.6315 126.812 11.5992 126.862 11.5824C126.912 11.5655 126.966 11.565 127.016 11.5808C127.066 11.5967 127.11 11.6281 127.141 11.6705C127.172 11.7129 127.189 11.7641 127.19 11.8168L127.196 16.2435C127.195 16.3105 127.172 16.3754 127.132 16.4288C127.092 16.4823 127.035 16.5214 126.971 16.5407C126.907 16.5599 126.839 16.5582 126.775 16.5358C126.712 16.5134 126.658 16.4715 126.62 16.4161L124.259 12.8402C124.244 12.8171 124.222 12.7996 124.197 12.7905C124.171 12.7814 124.143 12.7811 124.117 12.7897C124.091 12.7983 124.068 12.8153 124.052 12.8381C124.036 12.8609 124.028 12.8882 124.028 12.9159C124.081 14.014 124.093 15.1414 124.065 16.298C124.061 16.5241 123.929 16.5887 123.668 16.4918C123.583 16.4595 123.541 16.3989 123.541 16.3101V11.8138C123.541 11.7543 123.561 11.6964 123.596 11.6485C123.632 11.6006 123.681 11.5653 123.738 11.5476C123.794 11.53 123.855 11.5311 123.91 11.5506C123.966 11.5702 124.014 11.6072 124.047 11.6563L126.484 15.2716Z" fill="white"/>
<path d="M129.297 11.8105C130.187 11.2262 131.48 11.7106 131.858 12.7643C131.893 12.8592 131.87 12.9379 131.792 13.0005L131.692 13.0822C131.671 13.0995 131.646 13.1116 131.62 13.1176C131.594 13.1236 131.566 13.1234 131.54 13.1169C131.514 13.1104 131.49 13.0979 131.469 13.0803C131.449 13.0627 131.433 13.0405 131.422 13.0156C131.226 12.5433 130.932 12.1315 130.381 12.077C128.582 11.8953 128.891 14.4236 129.127 15.4924C129.147 15.5913 129.199 15.669 129.282 15.7255C130.182 16.3493 130.889 16.1848 131.404 15.232C131.499 15.0523 131.619 15.011 131.764 15.1079C131.82 15.145 131.861 15.2009 131.878 15.2654C131.896 15.3299 131.89 15.3987 131.861 15.4591C131.335 16.5885 129.951 17.0124 129.048 16.1313C128.131 15.232 128.131 12.5766 129.297 11.8105Z" fill="white"/>
<path d="M133.454 11.6016H133.236C133.149 11.6016 133.078 11.6721 133.078 11.759V16.3613C133.078 16.4483 133.149 16.5188 133.236 16.5188H133.454C133.541 16.5188 133.611 16.4483 133.611 16.3613V11.759C133.611 11.6721 133.541 11.6016 133.454 11.6016Z" fill="white"/>
<path d="M135.967 14.2453C133.429 13.5701 135.337 10.4847 137.68 11.9623C137.712 11.9821 137.738 12.0098 137.755 12.0427C137.773 12.0755 137.782 12.1123 137.781 12.1496C137.78 12.1868 137.769 12.2232 137.75 12.2551C137.731 12.2871 137.704 12.3134 137.671 12.3317C137.564 12.3923 137.443 12.3832 137.308 12.3044C136.018 11.5384 134.453 12.8313 135.736 13.67C135.804 13.7137 135.883 13.7387 135.967 13.7427C139.606 13.9062 138.016 17.5487 135.194 16.4072C134.938 16.3042 134.789 16.1407 134.746 15.9167C134.737 15.8692 134.743 15.8201 134.762 15.7758C134.781 15.7314 134.813 15.6938 134.854 15.6678C134.895 15.6417 134.942 15.6285 134.99 15.6296C135.039 15.6308 135.086 15.6464 135.125 15.6744C135.73 16.1226 136.394 16.2073 137.114 15.9288C137.264 15.8706 137.39 15.7644 137.472 15.6273C137.554 15.4902 137.588 15.3298 137.568 15.1718C137.453 14.2392 136.596 14.4118 135.967 14.2453Z" fill="white"/>
<path d="M139.567 16.1526C138.519 15.1534 138.613 11.8016 140.524 11.6018C141.406 11.5089 142.047 11.9177 142.446 12.828C142.468 12.88 142.47 12.9384 142.452 12.9921C142.435 13.0458 142.398 13.0911 142.349 13.1192C142.3 13.1474 142.243 13.1564 142.188 13.1446C142.134 13.1327 142.085 13.1009 142.053 13.0551L141.556 12.3648C141.507 12.2955 141.438 12.242 141.359 12.2104C140.303 11.7743 139.597 12.3072 139.591 13.4276C139.585 14.2693 139.261 15.7257 140.375 16.0073C141.792 16.3615 141.402 15.4169 142.034 15.102C142.109 15.0656 142.192 15.0636 142.283 15.0959C142.384 15.1343 142.421 15.2059 142.395 15.3109C142.077 16.5614 140.46 17.0065 139.567 16.1526Z" fill="white"/>
<path d="M146.969 14.9385C146.968 15.1532 146.925 15.3656 146.842 15.5635C146.758 15.7615 146.637 15.9411 146.484 16.0921C146.332 16.2431 146.151 16.3626 145.952 16.4438C145.753 16.5249 145.54 16.5661 145.326 16.565L145.083 16.5637C144.65 16.5614 144.235 16.387 143.93 16.0787C143.625 15.7705 143.455 15.3537 143.457 14.9201L143.466 13.2427C143.467 13.028 143.51 12.8156 143.594 12.6177C143.677 12.4197 143.798 12.2401 143.951 12.0891C144.103 11.938 144.284 11.8185 144.483 11.7374C144.682 11.6563 144.895 11.6151 145.109 11.6162L145.352 11.6175C145.785 11.6198 146.2 11.7942 146.505 12.1025C146.81 12.4107 146.98 12.8275 146.978 13.2611L146.969 14.9385ZM146.389 13.2004C146.389 12.9025 146.271 12.6168 146.06 12.4061C145.85 12.1954 145.564 12.0771 145.266 12.0771H145.121C144.823 12.0771 144.537 12.1954 144.326 12.4061C144.116 12.6168 143.997 12.9025 143.997 13.2004V14.9323C143.997 15.2303 144.116 15.516 144.326 15.7267C144.537 15.9373 144.823 16.0557 145.121 16.0557H145.266C145.564 16.0557 145.85 15.9373 146.06 15.7267C146.271 15.516 146.389 15.2303 146.389 14.9323V13.2004Z" fill="white"/>
<path d="M39.1089 11.8867C41.4615 13.9124 40.7469 18.4269 40.7348 22.2874C40.7197 26.1721 37.498 25.8542 34.446 25.7846C31.8218 25.726 29.1977 25.721 26.5736 25.7694C23.903 25.8179 22.5889 22.5781 23.6305 20.4707C24.9688 17.7608 29.9284 18.5601 32.5203 18.5571C33.3499 18.554 33.9888 18.2755 33.6133 17.3066C34.5943 17.6578 35.757 18.0666 36.7714 17.8879C39.7175 17.3762 40.7439 14.3938 39.1089 11.8867Z" fill="white"/>
<path d="M97.0352 21.5941C97.0484 21.6259 97.0703 21.6533 97.0985 21.6731C97.1266 21.6929 97.1599 21.7044 97.1945 21.7063C97.2291 21.7082 97.2637 21.7004 97.2944 21.6838C97.3251 21.6672 97.3507 21.6424 97.3683 21.6122L98.2979 19.9923C98.3192 19.9554 98.3497 19.9248 98.3864 19.9035C98.4231 19.8822 98.4646 19.8711 98.5068 19.8712H98.7339C98.7597 19.8712 98.785 19.8781 98.8073 19.8911C98.8296 19.9042 98.848 19.9229 98.8607 19.9454C98.8733 19.9679 98.8797 19.9934 98.8793 20.0192C98.8788 20.045 98.8715 20.0702 98.858 20.0923L97.5894 22.1815C97.5639 22.2235 97.5505 22.2715 97.5505 22.3201C97.5505 22.3688 97.5639 22.4162 97.5894 22.457L98.9277 24.634C98.9397 24.6529 98.947 24.6744 98.9488 24.6968C98.9505 24.7191 98.9468 24.7417 98.9379 24.7625C98.929 24.7833 98.9151 24.8017 98.8976 24.8163C98.88 24.8308 98.8591 24.841 98.8368 24.846C98.6148 24.8924 98.4351 24.8066 98.2979 24.5886C97.9487 24.0396 97.6358 23.4905 97.3592 22.9415C97.3472 22.9179 97.3289 22.898 97.3064 22.884C97.2839 22.87 97.258 22.8625 97.2315 22.8622C97.205 22.8619 97.1789 22.8688 97.156 22.8822C97.1332 22.8957 97.1145 22.9151 97.1019 22.9384C96.8132 23.4835 96.4993 24.0295 96.1602 24.5765C96.0179 24.8097 95.815 24.9096 95.5637 24.8278C95.4668 24.7975 95.4456 24.739 95.5001 24.6522L96.8263 22.5236C96.8645 22.4626 96.885 22.3925 96.8856 22.3213C96.8861 22.2501 96.8666 22.1807 96.8294 22.1209L95.6243 20.1377C95.6078 20.1107 95.5983 20.0801 95.5968 20.0485C95.5954 20.0169 95.6019 19.9855 95.6157 19.9571C95.6296 19.9287 95.6505 19.9043 95.6763 19.8861C95.7021 19.8679 95.7322 19.8566 95.7636 19.8531C95.9614 19.8309 96.1128 19.9156 96.2177 20.1074C96.4933 20.6161 96.8233 21.0884 97.0352 21.5941Z" fill="white"/>
<path d="M102.21 23.71H100.451C100.391 23.71 100.333 23.7253 100.282 23.7545C100.23 23.7837 100.187 23.8257 100.157 23.8765C100.068 24.0299 100.011 24.1954 99.9843 24.3731C99.9724 24.4484 99.9357 24.5416 99.8783 24.6426C99.7875 24.802 99.6502 24.8697 99.4665 24.8454C99.3212 24.8252 99.2737 24.7465 99.3242 24.6093L101.002 20.0947C101.024 20.0354 101.064 19.9842 101.116 19.9479C101.168 19.9116 101.23 19.8919 101.293 19.8916C101.356 19.8913 101.418 19.9103 101.47 19.946C101.522 19.9818 101.561 20.0326 101.583 20.0917L103.276 24.6274C103.328 24.7728 103.278 24.8454 103.124 24.8454H102.939C102.824 24.8454 102.749 24.7919 102.712 24.685L102.434 23.8705C102.418 23.8236 102.388 23.7829 102.348 23.7541C102.307 23.7254 102.259 23.7099 102.21 23.71ZM100.411 23.1256C100.406 23.1397 100.405 23.1546 100.407 23.1693C100.409 23.184 100.415 23.198 100.423 23.2101C100.432 23.2222 100.443 23.2321 100.456 23.239C100.47 23.2459 100.484 23.2496 100.499 23.2498L102.083 23.2588C102.097 23.2587 102.112 23.255 102.125 23.2481C102.138 23.2412 102.15 23.2313 102.158 23.2192C102.167 23.2071 102.172 23.1931 102.174 23.1784C102.177 23.1637 102.175 23.1487 102.17 23.1347L101.392 20.9334C101.386 20.9144 101.375 20.8978 101.359 20.8858C101.343 20.8738 101.324 20.8672 101.304 20.8669C101.284 20.8665 101.265 20.8725 101.248 20.8839C101.232 20.8953 101.22 20.9116 101.214 20.9304L100.411 23.1256Z" fill="white"/>
<path d="M104.944 23.6197C104.951 23.6468 104.966 23.6709 104.988 23.6884C105.01 23.7058 105.037 23.7157 105.064 23.7163C105.092 23.717 105.12 23.7085 105.142 23.6922C105.165 23.6758 105.181 23.6525 105.189 23.6258C105.551 22.4691 105.919 21.3206 106.295 20.1801C106.352 20.0045 106.476 19.8924 106.652 19.8712C106.687 19.8669 106.722 19.8715 106.755 19.8846C106.788 19.8976 106.816 19.9187 106.839 19.9459C106.861 19.9731 106.876 20.0055 106.883 20.0401C106.889 20.0746 106.887 20.1103 106.876 20.1438L105.356 24.7098C105.338 24.7643 105.303 24.8117 105.257 24.8454C105.21 24.879 105.154 24.8972 105.097 24.8972C105.04 24.8972 104.984 24.879 104.937 24.8454C104.891 24.8117 104.856 24.7643 104.838 24.7098L103.306 20.1316C103.274 20.0327 103.301 19.954 103.388 19.8955C103.479 19.8369 103.578 19.8369 103.685 19.8955C103.757 19.9358 103.814 20.0095 103.854 20.1165C104.29 21.2852 104.653 22.453 104.944 23.6197Z" fill="white"/>
<path d="M108.015 19.8589L107.967 19.8588C107.833 19.8586 107.724 19.9668 107.724 20.1006L107.716 24.6121C107.716 24.7459 107.824 24.8545 107.958 24.8548L108.007 24.8549C108.14 24.8551 108.249 24.7468 108.249 24.613L108.257 20.1016C108.257 19.9678 108.149 19.8591 108.015 19.8589Z" fill="white"/>
<path d="M110.217 22.7748V24.1646C110.217 24.316 110.293 24.3917 110.444 24.3917H112.64C112.66 24.3917 112.68 24.3957 112.698 24.4035C112.717 24.4113 112.734 24.4227 112.748 24.4371C112.762 24.4515 112.773 24.4685 112.78 24.4873C112.788 24.506 112.791 24.526 112.791 24.5461C112.791 24.5703 112.791 24.5956 112.791 24.6218C112.797 24.7712 112.725 24.8459 112.576 24.8459H109.915C109.763 24.8459 109.688 24.7702 109.688 24.6188V20.074C109.688 20.0511 109.692 20.0284 109.701 20.0072C109.709 19.9861 109.722 19.9669 109.738 19.9509C109.754 19.9348 109.773 19.9221 109.794 19.9137C109.815 19.9052 109.838 19.901 109.86 19.9014L112.652 19.9377C112.67 19.9377 112.689 19.9414 112.706 19.9486C112.723 19.9558 112.738 19.9663 112.751 19.9796C112.764 19.9928 112.775 20.0086 112.781 20.0258C112.788 20.0431 112.791 20.0615 112.791 20.08C112.791 20.1204 112.792 20.1608 112.794 20.2012C112.802 20.3202 112.746 20.3798 112.625 20.3798H110.408C110.281 20.3798 110.217 20.4434 110.217 20.5705V21.9543C110.217 22.0552 110.268 22.1077 110.369 22.1117C110.932 22.1359 111.486 22.1269 112.031 22.0845C112.295 22.0643 112.432 22.1612 112.44 22.3751C112.441 22.4008 112.436 22.4264 112.427 22.4504C112.418 22.4745 112.403 22.4964 112.385 22.515C112.367 22.5336 112.346 22.5485 112.322 22.5588C112.298 22.5691 112.272 22.5746 112.246 22.575L110.414 22.578C110.362 22.578 110.312 22.5988 110.275 22.6357C110.238 22.6726 110.217 22.7226 110.217 22.7748Z" fill="white"/>
<path d="M116.273 22.8053L117.254 24.625C117.264 24.6434 117.27 24.6637 117.271 24.6845C117.272 24.7054 117.269 24.7262 117.261 24.7456C117.253 24.7649 117.241 24.7823 117.226 24.7966C117.211 24.8108 117.192 24.8215 117.172 24.8279C116.922 24.9086 116.742 24.845 116.631 24.6371C116.312 24.0416 116.012 23.4361 115.731 22.8204C115.685 22.7215 115.607 22.67 115.498 22.666L114.653 22.6448C114.628 22.644 114.602 22.6483 114.578 22.6575C114.555 22.6667 114.533 22.6807 114.514 22.6985C114.496 22.7163 114.482 22.7376 114.472 22.7611C114.462 22.7847 114.456 22.81 114.457 22.8355V24.6038C114.457 24.6946 114.416 24.7592 114.335 24.7976C114.16 24.8803 114.027 24.8783 113.936 24.7915C113.885 24.7431 113.86 24.6583 113.86 24.5372C113.846 23.0576 113.844 21.587 113.854 20.1256C113.854 20.0899 113.862 20.0547 113.877 20.0221C113.891 19.9896 113.913 19.9604 113.94 19.9365C113.966 19.9126 113.998 19.8944 114.032 19.8832C114.066 19.872 114.103 19.8679 114.139 19.8713C114.877 19.95 116.361 19.7259 116.897 20.3285C117.587 21.1036 117.318 22.1573 116.355 22.5721C116.334 22.5815 116.315 22.5951 116.299 22.6121C116.283 22.6291 116.271 22.6492 116.264 22.671C116.256 22.6928 116.253 22.716 116.255 22.7391C116.256 22.7622 116.263 22.7847 116.273 22.8053ZM114.402 20.6615L114.396 21.8969C114.396 21.9751 114.427 22.0501 114.482 22.1057C114.537 22.1612 114.611 22.1928 114.69 22.1936L115.68 22.1997C115.817 22.2006 115.953 22.18 116.08 22.1391C116.207 22.0982 116.323 22.0377 116.421 21.9613C116.518 21.8848 116.596 21.7937 116.649 21.6933C116.702 21.5929 116.73 21.4851 116.73 21.3761V21.2065C116.732 20.9866 116.623 20.7751 116.428 20.6184C116.234 20.4617 115.969 20.3727 115.692 20.3709L114.702 20.3678C114.663 20.3674 114.624 20.3747 114.588 20.3893C114.552 20.4038 114.519 20.4253 114.491 20.4526C114.463 20.4799 114.441 20.5124 114.426 20.5482C114.41 20.5841 114.402 20.6226 114.402 20.6615Z" fill="white"/>
</svg>
