<svg width="66" height="66" viewBox="0 0 66 66" fill="none" xmlns="http://www.w3.org/2000/svg">
<path d="M9.09494 13.5181C10.1358 14.5575 12.0926 14.7273 13.3411 13.8824C14.9408 12.7995 15.4111 10.7338 14.379 9.03533C14.289 8.88726 14.0233 8.59547 13.582 8.15997C11.1878 5.79473 9.64996 4.25983 8.96865 3.55529C8.3212 2.88317 8.64638 2.21105 9.2735 1.66958C11.962 -0.653086 15.9076 -0.550018 18.4727 1.96427C19.8489 3.31335 21.2192 4.66969 22.5838 6.03328C23.5255 6.97396 24.1565 7.70367 24.4768 8.22239C25.9996 10.683 25.7383 13.3613 24.1589 15.8117C24.1469 15.83 24.1417 15.8519 24.1441 15.8736C24.1465 15.8953 24.1563 15.9155 24.1719 15.9307L25.4799 17.2401C25.5409 17.3001 25.5292 17.3229 25.445 17.3084C22.5693 16.8206 20.3163 18.8834 18.329 20.7241C17.0689 21.8884 15.9555 23.0047 14.9597 24.3577C14.8914 24.4491 14.7666 24.5333 14.6766 24.5623C12.5291 25.2649 10.5621 25.082 8.77557 24.0136C8.29169 23.7242 7.67666 23.2079 6.93051 22.4647C5.66079 21.2008 4.39445 19.933 3.1315 18.6613C2.27502 17.8 1.69919 17.1182 1.40402 16.6159C-0.04184 14.1597 0.273171 10.9602 2.15888 8.78274C2.8281 8.009 3.47119 7.89577 4.20864 8.63321C5.83644 10.262 7.4652 11.8903 9.09494 13.5181Z" fill="#F16422"/>
<path d="M36.1331 20.145C34.9791 21.3035 33.8337 22.5258 32.6332 23.6334C32.5083 23.7485 32.3917 23.7413 32.2833 23.6116L28.9793 19.6529C28.9426 19.6084 28.9445 19.5658 28.9851 19.5252C29.8581 18.6484 30.73 17.7749 31.601 16.9049C32.893 15.6173 34.0239 14.7956 35.7194 15.7828C37.2567 16.6785 37.4091 18.8632 36.1331 20.145Z" fill="#F16422"/>
<path d="M18.4536 23.6246C19.9677 22.0016 21.3265 20.6791 23.2035 19.7355C24.735 18.9633 25.8803 19.602 26.9749 20.7111C29.1669 22.9307 30.5184 25.3825 33.2896 27.2087C33.5654 27.3907 33.9245 27.7575 34.3668 28.3091C35.8417 30.1512 33.7121 33.0241 31.4083 32.2416C31.0773 32.1294 30.6795 31.8608 30.215 31.436C29.0982 30.4159 28.0012 29.3736 26.9241 28.3091C26.4726 27.8634 25.7018 27.216 25.0645 27.5905C24.2545 28.0652 24.2443 28.7649 24.7654 29.4661C27.0591 32.5552 28.9288 35.685 26.5728 39.4303C26.4315 39.6558 26.071 40.1527 25.4913 40.9212C24.8569 41.7631 25.5406 42.9274 26.5292 42.6661C27.4031 42.4323 28.6196 40.2795 29.0116 39.4913C29.0182 39.4779 29.028 39.4663 29.04 39.4575C29.0521 39.4486 29.066 39.4427 29.0807 39.4403C29.0955 39.4379 29.1106 39.439 29.1248 39.4436C29.139 39.4482 29.152 39.456 29.1625 39.4666L39.089 49.3931C39.1099 49.414 39.1217 49.4423 39.122 49.4719C39.1222 49.5015 39.1109 49.53 39.0905 49.5513C37.6795 51.0407 35.8155 51.9524 33.7092 52.9351C31.417 54.005 29.1146 54.4695 26.6352 54.7192C24.1848 54.9675 22.8217 55.2999 21.1319 56.9679C19.5961 58.4844 18.0549 60.0057 16.5084 61.5319C16.4923 61.5478 16.4704 61.5566 16.4475 61.5564C16.4247 61.5561 16.4027 61.5468 16.3864 61.5304L4.47117 49.6152C4.43149 49.5755 4.43149 49.5363 4.47117 49.4976C5.69927 48.2917 6.91093 47.0811 8.10614 45.8655C11.1556 42.7657 13.1124 39.0751 13.9767 34.7937C14.2626 33.3754 14.3251 31.2923 14.7257 29.8304C15.3993 27.3728 16.745 25.4551 18.4536 23.6246Z" fill="#F16422"/>
<path d="M42.8631 24.2239C41.424 25.6475 39.9936 27.0789 38.5719 28.5179C38.135 28.9592 37.7213 29.2423 37.1841 29.4615C37.1635 29.4699 37.1413 29.4735 37.1191 29.472C37.0969 29.4705 37.0754 29.464 37.0561 29.453C37.0368 29.4419 37.0202 29.4266 37.0077 29.4082C36.9952 29.3898 36.987 29.3688 36.9838 29.3468C36.6906 27.4379 35.7209 26.3695 34.2416 25.2038C34.1981 25.1689 34.1956 25.1322 34.2344 25.0935C35.6038 23.7124 36.977 22.3401 38.3542 20.9765C39.0132 20.3233 39.5073 19.9168 39.8363 19.7571C42.5466 18.4361 44.9839 22.1277 42.8631 24.2239Z" fill="#F16422"/>
<path d="M43.8371 26.3259L39.2059 30.9248C38.1688 31.9547 38.163 33.6303 39.1929 34.6673L39.3217 34.7971C40.3516 35.8342 42.0272 35.8401 43.0643 34.8102L47.6954 30.2113C48.7325 29.1814 48.7383 27.5058 47.7085 26.4687L47.5796 26.339C46.5497 25.3019 44.8741 25.296 43.8371 26.3259Z" fill="#F16422"/>
<path d="M51.8663 33.1007L51.7431 32.9775C50.7125 31.9468 49.0415 31.9468 48.0108 32.9775L43.3567 37.6315C42.3261 38.6622 42.3261 40.3332 43.3567 41.3638L43.4799 41.487C44.5106 42.5177 46.1816 42.5177 47.2122 41.487L51.8663 36.8329C52.8969 35.8023 52.8969 34.1313 51.8663 33.1007Z" fill="#F16422"/>
<path d="M57.5974 52.1512C57.2112 51.7534 56.6189 51.1945 56.0804 50.9361C54.2876 50.0753 52.0738 50.9507 51.3683 52.7623C50.7266 54.4129 51.2638 55.6845 52.4338 56.856C53.8584 58.2845 55.2834 59.711 56.709 61.1355C57.8645 62.2896 57.2446 63.2042 56.0615 63.885C53.4621 65.3783 50.9879 65.3928 48.6391 63.9285C48.1736 63.6382 47.6128 63.1625 46.9567 62.5016C45.6269 61.1612 44.2953 59.8252 42.9617 58.4935C42.29 57.8219 41.8129 57.2548 41.5303 56.7922C40.0046 54.2909 40.2572 51.6852 41.8395 49.1999C41.8511 49.1819 41.8561 49.1604 41.8537 49.1392C41.8514 49.118 41.8417 49.0985 41.8265 49.0838L29.8894 37.1453C29.8583 37.1146 29.8348 37.077 29.8207 37.0354C29.8065 36.9939 29.8023 36.9495 29.8081 36.9058C29.9456 35.8877 29.8773 34.8841 29.6035 33.895C29.6006 33.8843 29.601 33.873 29.6047 33.8625C29.6083 33.852 29.6151 33.8429 29.624 33.8363C29.6329 33.8297 29.6437 33.826 29.6548 33.8256C29.6659 33.8252 29.6768 33.8281 29.6862 33.8341C31.9798 35.2799 34.7496 34.5236 36.21 32.2997C36.2477 32.2416 36.2656 32.2469 36.2637 32.3156C36.1664 35.2044 37.772 37.244 40.6303 37.7332C40.6826 37.7429 40.7014 37.7729 40.6869 37.8232C40.1353 39.7956 40.4532 41.4447 41.6407 42.7705C43.1417 44.4457 45.4629 44.9277 47.4967 43.9144C48.7611 43.2859 50.0502 41.7776 51.0736 40.7237C51.2429 40.5495 51.4312 40.4285 51.6383 40.3608C54.0408 39.5667 56.6625 40.1851 58.4814 41.9402C59.094 42.5315 60.4591 43.8936 62.5766 46.0266C63.5608 47.0176 64.1976 47.7425 64.487 48.2012C66.0794 50.7213 65.7673 54.1138 63.7336 56.3349C63.2429 56.872 62.565 57.1043 61.9959 56.573C61.1336 55.7658 59.6674 54.2919 57.5974 52.1512Z" fill="#F16422"/>
</svg>
