<svg width="66" height="62" viewBox="0 0 66 62" fill="none" xmlns="http://www.w3.org/2000/svg">
<path d="M47.8107 14.8116C47.8107 18.7399 46.2502 22.5073 43.4725 25.285C40.6948 28.0627 36.9274 29.6232 32.9991 29.6232C29.0708 29.6232 25.3034 28.0627 22.5257 25.285C19.748 22.5073 18.1875 18.7399 18.1875 14.8116C18.1875 10.8833 19.748 7.11594 22.5257 4.33822C25.3034 1.56051 29.0708 0 32.9991 0C36.9274 0 40.6948 1.56051 43.4725 4.33822C46.2502 7.11594 47.8107 10.8833 47.8107 14.8116ZM31.3157 11.6835C31.3208 15.0774 31.3212 18.4713 31.317 21.8651C31.3132 24.5121 35.1218 24.667 35.1243 21.7509C35.1269 17.134 35.1264 12.5172 35.123 7.90029C35.123 7.41449 35.0655 7.04844 34.9504 6.80215C34.5848 6.02139 33.6529 5.57324 32.8125 5.76748C32.5434 5.82926 32.2116 6.01504 31.8172 6.3248C30.8202 7.10768 29.8283 7.89775 28.8414 8.69502C27.8689 9.48213 27.4538 10.6019 28.3768 11.6543C28.9447 12.3026 29.6975 12.4435 30.6353 12.0771C30.8409 11.9958 31.0517 11.7762 31.251 11.6479C31.2941 11.62 31.3157 11.6319 31.3157 11.6835Z" fill="#F16422"/>
<path d="M65.5 22.5722V22.8553C64.949 28.7485 61.0643 33.5181 54.7369 33.1855C54.2299 33.1593 53.6286 33.0856 52.9329 32.9646C52.8813 32.9562 52.8483 32.9769 52.8339 33.0268C52.4336 34.3937 51.8991 35.7047 51.2305 36.9598C51.228 36.9645 51.2269 36.9698 51.2271 36.9751C51.2273 36.9804 51.2289 36.9855 51.2317 36.99C51.2346 36.9945 51.2385 36.9982 51.2432 37.0007C51.2479 37.0032 51.2531 37.0044 51.2584 37.0043C55.6827 36.8354 59.1041 39.6792 61.0414 43.4154C61.6495 44.591 61.3486 45.3781 60.3343 46.1919C55.2396 50.2836 48.5505 49.9357 44.7851 44.332C44.763 44.2996 44.7292 44.2771 44.6909 44.2695C44.6526 44.2619 44.613 44.2698 44.5807 44.2914C43.3619 45.1013 42.0687 45.7678 40.701 46.2909C40.6138 46.3239 40.5939 46.3806 40.6413 46.461C41.2126 47.4292 41.9739 48.2189 42.9252 48.83C42.936 48.8367 42.9443 48.8468 42.9488 48.8587C42.9534 48.8706 42.9539 48.8837 42.9503 48.8959C42.9467 48.9082 42.9392 48.9189 42.9289 48.9265C42.9187 48.934 42.9062 48.938 42.8935 48.9379H23.0951C23.0828 48.9381 23.0707 48.9342 23.0607 48.9268C23.0508 48.9195 23.0436 48.909 23.0403 48.8971C23.0369 48.8852 23.0376 48.8725 23.0423 48.861C23.0469 48.8496 23.0552 48.84 23.0659 48.8338C24.057 48.2193 24.9021 47.4466 25.6012 46.5156C25.608 46.5066 25.6126 46.496 25.6147 46.4849C25.6167 46.4737 25.6161 46.4623 25.6129 46.4514C25.6097 46.4405 25.604 46.4306 25.5962 46.4223C25.5884 46.4141 25.5788 46.4077 25.5682 46.4039C24.0845 45.8521 22.6868 45.1339 21.3749 44.2495C21.3669 44.2439 21.3579 44.24 21.3484 44.238C21.3389 44.236 21.3291 44.2358 21.3195 44.2376C21.31 44.2393 21.3008 44.243 21.2927 44.2483C21.2846 44.2536 21.2775 44.2605 21.2721 44.2685C17.2896 50.0043 10.6169 50.3407 5.44736 46.0116C4.50283 45.2207 4.44824 44.3815 5.02588 43.2834C6.96826 39.5878 10.396 36.8621 14.6883 37.0017C14.6989 37.002 14.7094 36.9996 14.7187 36.9946C14.7281 36.9896 14.7359 36.9822 14.7416 36.9732C14.7472 36.9643 14.7504 36.954 14.7509 36.9434C14.7513 36.9328 14.749 36.9223 14.7441 36.9129C14.0908 35.689 13.5698 34.411 13.1813 33.0789C13.1704 33.0412 13.1456 33.009 13.1119 32.9888C13.0783 32.9686 13.0382 32.9617 12.9998 32.9697C6.08467 34.3675 0.998926 29.514 0.5 22.8325V22.557C0.643034 21.6844 1.16185 21.1165 2.05645 20.8533C7.43037 19.2753 12.7751 20.4775 15.2316 25.9593C16.0568 27.8014 16.2815 29.7425 16.6243 31.2596C17.8075 36.499 21.8104 40.884 26.8263 42.8098C26.8378 42.8142 26.8501 42.8159 26.8624 42.815C26.8746 42.814 26.8865 42.8103 26.8971 42.8042C26.9077 42.7982 26.9167 42.7898 26.9236 42.7798C26.9304 42.7698 26.9349 42.7583 26.9367 42.7464L27.2008 40.9144C27.2076 40.8679 27.2346 40.8446 27.282 40.8446H39.029C39.0549 40.8445 39.08 40.8536 39.0999 40.8703C39.1199 40.887 39.1334 40.9103 39.1382 40.936L39.4327 42.627C39.4395 42.6676 39.4623 42.6803 39.5013 42.6651C45.237 40.3533 48.8399 35.312 49.7603 29.2271C49.9652 27.8704 50.4163 26.5438 51.1137 25.2471C53.7302 20.381 58.9848 19.2676 63.9677 20.8609C64.8754 21.1504 65.3705 21.6417 65.5 22.5722Z" fill="#F16422"/>
<path d="M27.1287 37.0346C25.915 37.0346 25.2752 36.0482 25.2612 34.931C25.2477 33.9153 25.2329 32.8993 25.2168 31.8828C25.2166 31.8678 25.2202 31.853 25.2272 31.8398C25.2342 31.8265 25.2445 31.8152 25.2569 31.8069C25.2694 31.7985 25.2838 31.7935 25.2987 31.7921C25.3137 31.7907 25.3287 31.7931 25.3425 31.799C30.4697 33.9945 35.5931 33.9881 40.7127 31.78C40.7187 31.7772 40.7253 31.776 40.7318 31.7765C40.7384 31.7769 40.7448 31.779 40.7503 31.7825C40.7559 31.7861 40.7605 31.7909 40.7637 31.7967C40.7668 31.8025 40.7685 31.809 40.7686 31.8155C40.788 32.8303 40.7838 33.8468 40.7559 34.865C40.7127 36.4379 39.918 37.0333 38.406 37.0346C34.6473 37.0371 30.8882 37.0371 27.1287 37.0346Z" fill="#F16422"/>
<path d="M23.3841 61.062C22.4065 61.062 21.6258 60.087 21.6207 59.1247C21.6105 57.0207 21.6055 54.9166 21.6055 52.8126C21.6055 52.7951 21.6123 52.7783 21.6244 52.7659C21.6366 52.7535 21.653 52.7466 21.6702 52.7466H44.3301C44.3472 52.7466 44.3637 52.7534 44.3759 52.7655C44.388 52.7777 44.3948 52.7942 44.3948 52.8113C44.394 54.6877 44.3944 56.5708 44.3961 58.4607C44.3961 59.1683 44.3322 59.6664 44.2044 59.955C43.807 60.8487 43.0555 61.062 42.0754 61.062C35.8454 61.062 29.6149 61.062 23.3841 61.062Z" fill="#F16422"/>
</svg>
