<svg width="13" height="13" viewBox="0 0 13 13" fill="none" xmlns="http://www.w3.org/2000/svg">
<path d="M8.26495 6.93615C8.72041 6.93666 9.1277 7.22203 9.26168 7.6575C9.42818 8.19826 9.12156 8.79025 8.56927 8.94445C8.47859 8.96973 8.33309 8.98245 8.13278 8.98262C7.45856 8.98348 6.78434 8.98356 6.11013 8.98288C6.01842 8.98271 5.95404 8.9933 5.91698 9.01464C5.80197 9.08073 5.79889 9.29283 5.9198 9.36405C5.95191 9.383 6.00271 9.39257 6.07222 9.39274C6.80518 9.39325 7.53823 9.39265 8.27136 9.39094C9.44483 9.38838 10.1165 8.10117 9.45431 7.13365C9.45193 7.13019 9.45085 7.12598 9.45127 7.12177C9.45169 7.11755 9.45359 7.1136 9.45661 7.1106C9.86647 6.69784 10.2786 6.28627 10.6928 5.8759C10.7869 5.78283 10.8704 5.71572 10.9431 5.67456C11.6701 5.26368 12.5264 5.85695 12.3576 6.69075C12.3174 6.89004 12.2129 7.06346 12.0802 7.25405C11.5279 8.04832 10.9763 8.8431 10.4254 9.63839C10.0816 10.1346 9.61902 10.5027 9.01781 10.597C8.91313 10.6133 8.74269 10.6216 8.50651 10.6218C7.41014 10.6228 6.31369 10.623 5.21715 10.6223C5.17181 10.6223 5.12083 10.63 5.07165 10.629C5.06362 10.6288 5.05679 10.6259 5.05116 10.6203L2.2339 7.803C2.2269 7.79617 2.22673 7.78925 2.23339 7.78225C2.63633 7.35574 3.08691 7.03836 3.67608 6.95562C3.77548 6.94179 3.94582 6.93479 4.18713 6.93462C5.54632 6.93359 6.90559 6.9341 8.26495 6.93615Z" fill="#F16422"/>
<path d="M4.94146 11.087L1.67164 7.81715C1.58871 7.73422 1.45426 7.73422 1.37132 7.81715L0.150849 9.03763C0.0679187 9.12056 0.0679187 9.25502 0.15085 9.33795L3.42067 12.6078C3.5036 12.6907 3.63805 12.6907 3.72099 12.6078L4.94146 11.3873C5.02439 11.3044 5.02439 11.1699 4.94146 11.087Z" fill="#F16422"/>
<path d="M9.42746 3.24693C9.42746 3.6237 9.35325 3.99677 9.20907 4.34485C9.06489 4.69294 8.85356 5.00921 8.58715 5.27563C8.32074 5.54204 8.00446 5.75337 7.65638 5.89755C7.30829 6.04173 6.93522 6.11594 6.55846 6.11594C5.79755 6.11594 5.06781 5.81367 4.52977 5.27563C3.99172 4.73758 3.68945 4.00784 3.68945 3.24693C3.68945 2.48603 3.99172 1.75628 4.52977 1.21824C5.06781 0.680199 5.79755 0.37793 6.55846 0.37793C7.31936 0.37793 8.04911 0.680199 8.58715 1.21824C9.12519 1.75628 9.42746 2.48603 9.42746 3.24693ZM6.99002 4.9765C7.48128 4.88236 7.83453 4.52689 7.90479 4.03812C7.98588 3.47243 7.58487 2.94395 7.03445 2.8337C6.83311 2.79344 6.5629 2.81204 6.33324 2.80899C5.94333 2.80371 5.9425 2.29939 6.31963 2.29078C6.46441 2.28745 6.71342 2.28773 7.06666 2.29162C7.07648 2.2918 7.08175 2.29671 7.08249 2.30634C7.13803 2.90952 8.03059 2.80649 7.89701 2.14499C7.83092 1.81729 7.63569 1.6004 7.31132 1.49432C7.21218 1.46182 7.0961 1.45988 6.9889 1.45488C6.97817 1.45451 6.9728 1.44896 6.9728 1.43822C6.97169 1.35574 6.97557 1.27576 6.94253 1.20245C6.7323 0.734507 6.09385 0.937512 6.14467 1.45211C6.14497 1.45557 6.14403 1.45902 6.14203 1.46178C6.14004 1.46455 6.13712 1.46644 6.13384 1.4671C5.73561 1.55134 5.4591 1.76268 5.30433 2.10111C5.04384 2.67097 5.3221 3.3383 5.8939 3.56074C6.14606 3.65877 6.4782 3.65155 6.76341 3.64378C6.87282 3.641 6.95391 3.6585 7.01973 3.73848C7.11943 3.85956 7.08583 4.05145 6.94308 4.12283C6.89846 4.14504 6.82682 4.15643 6.72814 4.15698C6.50356 4.15809 6.27881 4.15809 6.05386 4.15698C6.04386 4.15698 6.03711 4.15226 6.03359 4.14282C6.02387 4.11672 6.02609 4.07756 6.02054 4.05673C5.88057 3.53992 5.13215 3.68766 5.21241 4.2689C5.27461 4.72018 5.67007 5.01593 6.12412 4.98705C6.13467 4.98631 6.13986 4.99131 6.13967 5.00205C6.13662 5.212 6.15995 5.36557 6.32352 5.47888C6.56123 5.64328 6.86199 5.52359 6.95475 5.25338C6.98168 5.17534 6.96835 5.08286 6.97335 4.99538C6.97391 4.98483 6.97946 4.97854 6.99002 4.9765Z" fill="#F16422"/>
</svg>
