<svg width="9" height="12" viewBox="0 0 9 12" fill="none" xmlns="http://www.w3.org/2000/svg">
<path d="M4.01391 0.242188H4.25118C6.84247 0.340923 8.63524 2.74408 8.17898 5.25141C7.95977 6.45707 7.24365 7.53523 6.5176 8.49609C6.19326 8.9256 5.87042 9.35617 5.54909 9.7878C5.05542 10.4509 4.6334 11.1089 4.28302 11.7618C4.26225 11.8003 4.21694 11.8253 4.14711 11.8368H4.11347C4.03445 11.8257 3.99269 11.7926 3.95318 11.7195C3.31676 10.5399 2.56542 9.55115 1.72717 8.41184C0.72795 7.05378 -0.205574 5.56777 0.0396033 3.7919C0.154064 2.96239 0.5426 2.15484 1.12845 1.54092C1.90281 0.729598 2.86463 0.296688 4.01391 0.242188ZM6.29207 4.3868C6.29207 3.8113 6.06415 3.25938 5.65847 2.85244C5.25278 2.44551 4.70255 2.21689 4.12882 2.21689C3.55509 2.21689 3.00486 2.44551 2.59917 2.85244C2.19349 3.25938 1.96557 3.8113 1.96557 4.3868C1.96557 4.9623 2.19349 5.51422 2.59917 5.92116C3.00486 6.32809 3.55509 6.55671 4.12882 6.55671C4.70255 6.55671 5.25278 6.32809 5.65847 5.92116C6.06415 5.51422 6.29207 4.9623 6.29207 4.3868Z" fill="#F16422"/>
</svg>
