<svg width="145" height="42" viewBox="0 0 145 42" fill="none" xmlns="http://www.w3.org/2000/svg">
<path d="M153.101 12.4279C152.839 17.2389 150.954 21.4035 147.459 24.9091C147.222 25.1205 147.209 25.481 147.421 25.7172C147.634 25.9534 147.996 25.9658 148.233 25.7545L150.792 23.6536C150.854 23.5914 150.929 23.5914 151.004 23.6411L151.291 23.8525C151.416 23.9395 151.441 24.1011 151.353 24.2254C151.353 24.2254 151.353 24.2254 151.353 24.2378L147.696 29.0861C147.546 29.2975 147.609 29.5958 147.821 29.745C147.971 29.8445 148.17 29.8569 148.333 29.7574L151.665 27.5695C152.077 27.3084 152.439 27.3582 152.764 27.7187L153.725 28.8126C151.228 32.8404 147.147 35.998 141.48 38.2854L135.127 40.5604C130.209 41.4679 125.291 41.1696 120.361 39.6902C119.649 39.4789 119.487 39.0686 119.886 38.4346L124.891 30.6152C125.141 30.2174 125.503 29.9812 125.965 29.8942L131.295 28.9618L137.536 26.3015C144.064 22.7088 151.778 14.1808 146.111 6.95806C136.5 -5.27454 104.034 13.5965 116.504 27.2836L116.703 27.5695C116.915 27.8803 116.903 28.1662 116.641 28.4397L113.133 32.194C110.4 29.5958 108.927 26.5252 108.715 22.9823L109.701 18.9296C115.855 6.2246 133.229 -3.67087 147.034 2.52001C151.191 4.39717 153.226 7.69152 153.113 12.4279H153.101Z" fill="white"/>
<path d="M137.525 26.3011L131.284 28.9615L129.249 23.3673C129.149 23.0938 128.837 22.9446 128.563 23.0441C128.463 23.0814 128.376 23.1435 128.313 23.2306L115.257 41.1071C115.07 41.3681 114.808 41.5173 114.483 41.5297L107.181 41.8405C106.869 41.8654 106.607 41.6292 106.582 41.3184C106.582 41.1816 106.607 41.0449 106.694 40.9454L113.123 32.1937L116.63 28.4394C116.892 28.1659 116.905 27.8799 116.692 27.5691L116.493 27.2832C116.63 27.3081 116.755 27.3205 116.88 27.3205C117.117 27.333 117.317 27.2459 117.454 27.0595L124.569 17.6985C124.868 17.3132 125.268 17.1143 125.767 17.1143L134.242 17.1516C134.716 17.1516 135.141 17.4872 135.266 17.9472L137.525 26.3011Z" fill="white"/>
<path d="M37.0701 32.567C37.0701 32.7286 37.2074 32.8529 37.3572 32.8529C37.4695 32.8529 37.5694 32.7908 37.6193 32.6789L43.2737 19.3275C43.4609 18.8675 43.8104 18.6437 44.2972 18.6437L48.1416 18.6064C48.591 18.6064 48.9654 18.967 48.9654 19.4269C48.9654 19.5512 48.9405 19.6631 48.8905 19.775C46.2319 25.3816 43.7105 31.0504 41.3514 36.7813C39.604 41.008 37.4071 42.5122 33.0759 40.2124C32.664 39.9886 32.4518 39.6405 32.4393 39.1806L32.3644 26.3637C32.3644 26.2394 32.2646 26.1399 32.1397 26.1399C32.0399 26.1399 31.9525 26.2021 31.9276 26.2891L26.0485 40.0384C25.8239 40.5729 25.4244 40.8464 24.8503 40.8588L20.881 40.9832C20.182 41.008 19.9698 40.6972 20.2569 40.0632L29.6434 19.1659C29.7807 18.8675 30.0677 18.681 30.3923 18.6935L36.4959 18.7681C36.9952 18.7681 37.4071 19.1907 37.3946 19.688L37.0701 32.567Z" fill="white"/>
<path d="M55.5916 26.4259C55.5167 26.7739 55.7414 27.0972 56.0909 27.1718C56.1408 27.1718 56.1908 27.1842 56.2407 27.1718L63.0558 26.9231C63.8422 26.8858 64.0419 27.2215 63.6675 27.9052L61.6079 31.7092C61.3084 32.2562 60.859 32.4676 60.2599 32.3433C56.7025 31.6222 52.6958 31.1498 51.9843 35.016C51.8845 35.5133 52.209 35.9857 52.7083 36.0851C52.7832 36.0976 52.8581 36.11 52.9455 36.0976L59.8729 35.6873C60.4596 35.65 60.6468 35.8987 60.4346 36.4581L59.0866 39.9513C58.9243 40.3989 58.5998 40.6226 58.113 40.6351L44.2455 40.7594C43.8835 40.7594 43.5965 40.4859 43.584 40.1254C43.584 40.0259 43.6089 39.9265 43.6464 39.8395L53.1202 19.3026C53.3074 18.8799 53.7318 18.6064 54.2061 18.6064H67.125C67.8115 18.6064 68.0237 18.9172 67.7491 19.5512L66.3261 22.8456C66.1139 23.3428 65.727 23.5915 65.1903 23.5915C62.1571 23.5666 56.4654 22.3856 55.5916 26.4134V26.4259Z" fill="white"/>
<path d="M71.8072 35.861C78.0357 38.5213 82.9162 23.4916 84.5264 19.4141C84.6761 19.0163 85.0506 18.7428 85.4875 18.7304L89.9685 18.5688C90.5801 18.5563 90.7923 18.8298 90.6051 19.4141C88.5206 25.5926 83.74 37.4149 77.3492 40.125C72.5686 42.1513 61.6344 41.8032 65.2917 33.2006C67.2763 28.5264 69.3608 23.9143 71.5576 19.3519C71.7698 18.9168 72.1068 18.6931 72.5936 18.6806L76.9248 18.5936C77.2993 18.5936 77.6113 18.8796 77.6113 19.2525C77.6113 19.3519 77.5864 19.4638 77.5489 19.5509L71.0334 33.8719C70.6963 34.6303 71.0334 35.5129 71.7823 35.8486C71.7823 35.8486 71.7948 35.8486 71.8072 35.8486V35.861Z" fill="white"/>
<path d="M109.69 18.9292L108.704 22.9818C101.477 23.4418 95.0486 24.8465 95.2733 33.7848C95.2982 34.9534 96.2344 35.8857 97.4077 35.923L102.6 36.0722C103.362 36.0971 103.973 36.7311 103.948 37.4894C103.948 37.651 103.911 37.8126 103.848 37.9618C100.965 45.0726 83.4154 41.2188 89.232 29.3716C93.3011 21.0798 100.116 17.599 109.69 18.9292Z" fill="white"/>
<path d="M24.5747 23.032C22.7149 17.4751 15.5877 18.2086 10.882 18.8923C10.1955 18.9918 9.59632 19.4393 9.30923 20.0733L0.222365 39.8394C-0.0647203 40.4734 0.134991 40.809 0.833981 40.8339L5.21515 40.9458C5.70195 40.9582 6.1513 40.6723 6.33853 40.2248L8.59776 34.7673C8.93478 33.9344 9.77107 33.4123 10.6698 33.462C17.7595 33.7977 22.3903 30.752 24.5747 24.3249C24.7245 23.9022 24.7245 23.4547 24.5747 23.032ZM18.5709 25.3318C17.8719 27.0598 16.2242 28.0046 14.639 28.5267C13.0289 29.0737 11.9055 29.0986 11.9055 29.0986C11.2315 29.1732 10.7821 29.1732 10.7821 29.1732L13.8277 21.851C13.8277 21.851 20.1436 21.4781 18.5709 25.3318Z" fill="white"/>
<path d="M141.469 38.2852C142.38 39.2548 142.916 40.1126 143.066 40.8585C143.154 41.2687 142.979 41.5049 142.554 41.5422C140.083 41.766 137.599 41.4428 135.115 40.5601L141.469 38.2852Z" fill="white"/>
</svg>
