<svg width="9" height="13" viewBox="0 0 9 13" fill="none" xmlns="http://www.w3.org/2000/svg">
<path d="M4.78369 5.24573C4.77612 5.34225 4.82104 5.39051 4.91846 5.39051L8.03746 5.37099C8.07617 5.37102 8.11413 5.38163 8.14726 5.40168C8.1804 5.42172 8.20744 5.45045 8.22548 5.48476C8.24352 5.51907 8.25188 5.55766 8.24965 5.59638C8.24741 5.63509 8.23468 5.67246 8.21281 5.70446L3.45881 12.5317C3.4341 12.5675 3.39835 12.5941 3.35707 12.6075C3.31578 12.6209 3.27124 12.6204 3.23029 12.606C3.18935 12.5916 3.15426 12.5641 3.13042 12.5277C3.10658 12.4914 3.09532 12.4482 3.09836 12.4048L3.46043 7.53612C3.46476 7.47106 3.43391 7.43852 3.36788 7.43852L0.172566 7.43201C0.145696 7.43171 0.119232 7.42527 0.0952565 7.41321C0.0712807 7.40114 0.0504472 7.38379 0.0343949 7.3625C0.0183427 7.34122 0.00750974 7.31658 0.00274831 7.29054C-0.00201312 7.26449 -0.000573174 7.23775 0.00695506 7.21241C0.0372629 7.10505 0.100585 6.9825 0.196921 6.84478C1.68201 4.73658 3.20065 2.5709 4.75284 0.347746C4.77126 0.32106 4.7948 0.298316 4.82211 0.280829C4.84942 0.263342 4.87995 0.251457 4.91196 0.245861C4.94396 0.240265 4.97679 0.241069 5.00856 0.248226C5.04033 0.255382 5.07041 0.26875 5.09706 0.287558C5.17337 0.339612 4.81617 4.82767 4.78369 5.24573Z" fill="#F16422"/>
</svg>
