<svg width="142" height="33" viewBox="0 0 142 33" fill="none" xmlns="http://www.w3.org/2000/svg">
<path d="M14.7459 1C14.7352 1.0279 14.7477 1.07257 14.7833 1.13402C15.784 2.8548 16.7845 4.57891 17.7849 6.30634" stroke="white" stroke-width="1.25719"/>
<path d="M12.8463 14.9375C12.798 14.9524 12.7656 14.9742 12.7489 15.0028C11.7599 16.7242 10.765 18.4423 9.76431 20.1572C9.746 20.1887 9.7217 20.2144 9.69141 20.2344" stroke="white" stroke-width="1.25719"/>
<path d="M28.9224 14.953L22.7949 14.9365" stroke="white" stroke-width="1.25719"/>
<path d="M1.76319 1H14.7462C14.7356 1.0279 14.748 1.07257 14.7837 1.13402C15.7844 2.8548 16.7849 4.57891 17.7852 6.30634L12.8018 14.8958C12.7979 14.9023 12.7956 14.9093 12.7952 14.9159C12.7947 14.9226 12.7962 14.9286 12.7993 14.9332C12.8043 14.9402 12.8199 14.9415 12.8462 14.9372C12.7979 14.9521 12.7655 14.9739 12.7488 15.0024C11.7598 16.7239 10.7649 18.442 9.76423 20.1568C9.74592 20.1884 9.72162 20.2141 9.69132 20.234C6.54211 14.7751 3.39389 9.31547 0.246677 3.85519C0.101867 3.60443 0.019641 3.32012 0 3.00227V2.80149C0.139817 1.76457 0.727548 1.16407 1.76319 1Z" fill="white"/>
<path d="M14.7459 1H33.7959C35.1931 1.18284 36.044 2.6062 35.313 3.87412C33.1824 7.56811 31.0522 11.2611 28.9223 14.9531L22.7948 14.9367L17.7849 6.30634C16.7845 4.57891 15.784 2.8548 14.7833 1.13402C14.7477 1.07257 14.7352 1.0279 14.7459 1Z" fill="white"/>
<path d="M87.7981 27.3792C81.8893 26.2294 79.3546 20.4074 80.1675 14.9367C81.0359 9.09776 85.7333 5.51171 91.6056 6.06721C98.2389 6.69444 101.242 12.4038 100.481 18.4998C99.9731 22.5636 97.6721 25.9688 93.5875 27.1286C91.669 27.6737 89.7392 27.7572 87.7981 27.3792ZM85.969 16.3939C85.8541 19.0967 86.7275 22.9826 90.155 23.159C93.208 23.3159 94.4299 20.3347 94.6211 17.8267C94.7155 16.5917 94.6521 15.3965 94.3455 14.1924C93.8546 12.2643 92.5563 10.4753 90.3672 10.4479C88.4772 10.4245 87.1659 11.7437 86.5387 13.4087C86.1737 14.3782 86.0129 15.3636 85.969 16.3939Z" fill="white"/>
<path d="M116.287 6.51217C120.287 7.76017 122.596 11.3577 122.934 15.3991C123.372 20.6337 121.159 25.811 115.667 27.2124C114.156 27.598 112.618 27.7 111.054 27.5183C104.804 26.7914 101.828 21.1294 102.504 15.3483C103.06 10.5999 106.25 6.80163 111.137 6.12806C112.835 5.89391 114.644 6.00002 116.287 6.51217ZM115.203 11.4344C113.985 10.285 112.133 10.1221 110.743 11.0144C109.514 11.8021 108.838 13.2862 108.566 14.6647C108.29 16.0647 108.277 17.4669 108.527 18.8715C108.859 20.7333 109.899 22.6698 111.928 23.0833C112.865 23.2743 113.731 23.1547 114.525 22.7246C116.856 21.4622 117.224 17.8961 116.991 15.6009C116.838 14.0888 116.334 12.502 115.203 11.4344Z" fill="white"/>
<path d="M44.2053 10.6671C43.3783 10.7723 42.3407 11.2172 42.3981 12.223C42.4251 12.7003 42.7422 13.0794 43.1456 13.3181C43.5977 13.5854 44.0694 13.8133 44.5608 14.0016C46.4024 14.7066 48.3179 15.3084 49.8064 16.6914C50.7857 17.6011 51.3819 18.7275 51.5442 20.0687C51.8443 22.5497 50.8121 24.819 48.6644 26.1403C47.3182 26.9683 45.7363 27.3753 44.1708 27.5113C41.9021 27.7093 39.6945 27.4504 37.548 26.7346C37.2019 26.6195 36.8704 26.4731 36.5473 26.3161C36.529 26.3072 36.5221 26.2927 36.5268 26.2728L37.5704 21.7222C37.5715 21.7178 37.5735 21.7136 37.5764 21.7101C37.5792 21.7065 37.5829 21.7037 37.587 21.7017C37.5911 21.6997 37.5956 21.6987 37.6002 21.6987C37.6048 21.6988 37.6093 21.6998 37.6134 21.7018C39.3328 22.5344 41.1513 22.9626 43.0688 22.9862C43.9067 22.9966 45.2644 22.8168 45.7043 21.9723C46.1902 21.0407 45.6504 20.2934 44.8404 19.8345C44.032 19.3767 43.2925 19.139 42.2728 18.7704C39.4605 17.7535 36.6062 15.8514 36.6791 12.4716C36.7074 11.157 37.1092 9.99341 37.8845 8.98073C39.7516 6.54154 43.1187 5.89786 46.0149 6.08369C48.0378 6.21323 50.0971 7.00437 50.0421 9.41716C50.0265 10.1103 49.8717 10.8254 49.5777 11.5624C49.5721 11.5767 49.5621 11.5808 49.5478 11.5749C47.9389 10.8893 45.955 10.4444 44.2053 10.6671Z" fill="white"/>
<path d="M65.708 24.7951C63.2502 22.5144 62.4188 19.1998 62.6925 15.9461C62.9336 13.0854 64.1046 10.5047 66.3287 8.66287C68.6811 6.71491 71.8839 5.92875 74.886 6.06475C76.0225 6.11607 77.3757 6.41001 78.1687 7.30079C79.1699 8.42573 79.0206 10.0454 78.4433 11.3482C78.436 11.3648 78.424 11.3694 78.4074 11.3621C78.2379 11.2871 78.064 11.2215 77.8856 11.1653C76.039 10.5819 73.9078 10.3752 72.0812 11.0592C69.3108 12.0965 68.3391 14.8007 68.5852 17.5538C68.9118 21.2051 71.4944 23.0265 75.0148 22.9139C76.1239 22.878 77.3273 22.7181 78.3759 22.3405C78.3795 22.3392 78.3833 22.3387 78.3871 22.339C78.3909 22.3394 78.3945 22.3405 78.3978 22.3424C78.4011 22.3443 78.4039 22.3469 78.4061 22.35C78.4083 22.3531 78.4097 22.3567 78.4104 22.3604L79.1749 26.6683C79.1761 26.6754 79.1753 26.6826 79.1725 26.6891C79.1698 26.6956 79.1652 26.7012 79.1594 26.7052C79.1128 26.7388 79.06 26.7668 79.0011 26.7894C78.4482 27.0013 77.8937 27.1591 77.3378 27.2627C73.4579 27.9851 68.7375 27.607 65.708 24.7951Z" fill="white"/>
<path d="M141.215 20.868V21.2047C141.164 22.6 140.677 23.8072 139.754 24.8262C138.222 26.5171 135.936 27.0875 133.736 27.3221C132.328 27.4726 130.917 27.5342 129.502 27.507C127.906 27.4761 126.289 27.4268 124.714 27.1423C124.703 27.1403 124.692 27.1344 124.685 27.1257C124.678 27.117 124.674 27.1059 124.674 27.0945V6.69165C124.674 6.66641 124.686 6.6518 124.711 6.64781C127.222 6.25523 129.723 6.17602 132.351 6.21338C134.509 6.24377 136.625 6.47244 138.427 7.62777C139.969 8.6157 140.75 10.4167 140.479 12.2212C140.202 14.0635 138.78 15.2737 137.118 15.9009C137.11 15.9036 137.104 15.9085 137.1 15.9149C137.096 15.9212 137.094 15.9287 137.094 15.9362C137.095 15.9437 137.097 15.9509 137.102 15.9568C137.107 15.9626 137.113 15.9668 137.121 15.9687C139.504 16.6293 141.084 18.364 141.215 20.868ZM134.327 10.8736C133.336 10.0251 131.452 10.1616 130.264 10.3539C130.249 10.3563 130.242 10.3649 130.242 10.3798V14.351C130.242 14.3689 130.251 14.3779 130.269 14.3779C131.599 14.3829 133.984 14.5363 134.711 13.0577C135.056 12.3547 134.956 11.4121 134.327 10.8736ZM130.278 23.3595C131.002 23.4229 131.701 23.4325 132.375 23.3884C133.196 23.335 134.101 23.0765 134.677 22.4881C135.393 21.7582 135.537 20.427 134.959 19.5781C134.007 18.1762 131.705 18.3715 130.259 18.358C130.256 18.358 130.254 18.3583 130.252 18.3592C130.25 18.36 130.248 18.3612 130.247 18.3628C130.245 18.3644 130.244 18.3663 130.243 18.3684C130.242 18.3705 130.242 18.3727 130.242 18.375V23.3201C130.242 23.3443 130.254 23.3575 130.278 23.3595Z" fill="white"/>
<path d="M59.7163 27.2579C57.9323 27.254 56.1498 27.2533 54.3688 27.256C54.3616 27.256 54.3548 27.2532 54.3497 27.2482C54.3446 27.2433 54.3418 27.2365 54.3418 27.2295V6.38881C54.3418 6.38469 54.3426 6.38061 54.3442 6.3768C54.3458 6.37299 54.3481 6.36953 54.351 6.36661C54.3539 6.3637 54.3574 6.36139 54.3612 6.35981C54.365 6.35823 54.3691 6.35742 54.3733 6.35742C55.4154 6.36589 56.461 6.40276 57.4837 6.62296C59.3408 7.02302 59.9584 8.05479 59.9584 9.87472C59.9598 15.6376 59.9601 21.4135 59.9594 27.2026C59.9595 27.2099 59.9577 27.217 59.9543 27.2235C59.9509 27.23 59.946 27.2357 59.94 27.24C59.8706 27.2908 59.7807 27.2579 59.7163 27.2579Z" fill="white"/>
<path d="M12.8463 14.937L22.7953 14.9365L28.9228 14.953C28.8312 15.1064 28.7412 15.2599 28.6526 15.4133C25.6565 20.5879 22.6594 25.7619 19.6614 30.9352C19.435 31.3262 19.2539 31.5874 19.1181 31.7189C18.384 32.4303 17.1826 32.4468 16.4576 31.7219C16.3284 31.593 16.142 31.3195 15.8983 30.9014C13.8273 27.3469 11.7584 23.791 9.69141 20.2339C9.7217 20.214 9.746 20.1882 9.76431 20.1567C10.765 18.4419 11.7599 16.7237 12.7489 15.0023C12.7656 14.9737 12.798 14.952 12.8463 14.937Z" fill="white"/>
</svg>
