<svg width="50" height="48" viewBox="0 0 50 48" fill="none" xmlns="http://www.w3.org/2000/svg">
<path d="M31.699 18.3583C31.1082 17.791 30.6247 17.7934 30.0289 18.3653C28.0488 20.2663 26.0637 22.1649 24.0884 24.0729C23.9346 24.2205 23.8589 24.2252 23.7026 24.0729C22.7089 23.1048 21.7078 22.1461 20.7043 21.1898C20.2233 20.7304 19.6983 20.7304 19.2149 21.1851C18.9121 21.4711 18.6069 21.7547 18.3188 22.0524C17.933 22.4508 17.9257 22.9548 18.3237 23.3392C19.9523 24.9144 21.5882 26.4801 23.2241 28.0459C23.4121 28.2264 23.6416 28.3202 23.9126 28.3108C24.1959 28.3155 24.418 28.1959 24.6134 28.0084C27.2333 25.491 29.8556 22.9759 32.473 20.4585C32.9028 20.0459 32.8979 19.5279 32.4804 19.1083C32.2264 18.8528 31.9603 18.6067 31.7015 18.3583H31.699Z" fill="#F16422"/>
<path d="M25 0C11.1925 0 0 10.7448 0 24C0 37.2552 11.1925 48 25 48C38.8075 48 50 37.2552 50 24C50 10.7448 38.8075 0 25 0ZM37.9212 20.5168C37.8723 22.467 37.677 24.3985 37.2229 26.3018C36.7687 28.2121 36.0436 30.0053 34.7715 31.5757C32.3664 34.5479 29.3095 36.6176 25.5909 37.8013C25.2002 37.9256 24.8218 37.9467 24.4311 37.806C24.1405 37.7029 23.8427 37.6185 23.5521 37.513C20.8053 36.5075 18.4173 34.9839 16.4103 32.9212C15.0601 31.5335 13.9589 29.9982 13.3265 28.1746C12.5281 25.8705 12.1985 23.496 12.0984 21.0841C12.0007 18.7823 12.113 16.4875 12.3816 14.1975C12.45 13.6045 12.6746 13.3513 13.2752 13.1919C16.6813 12.2848 20.0899 11.3777 23.4935 10.4635C23.9037 10.3534 24.331 10.2901 24.7143 10.0955H25.166C25.2442 10.194 25.3711 10.1588 25.4712 10.1869C29.2289 11.1948 32.9915 12.1957 36.7516 13.1989C37.3181 13.3513 37.5476 13.6185 37.616 14.2022C37.8601 16.3 37.97 18.4049 37.9187 20.5168H37.9212Z" fill="#F16422"/>
</svg>
