<svg width="13" height="13" viewBox="0 0 13 13" fill="none" xmlns="http://www.w3.org/2000/svg">
<path d="M2.7863 8.06057L1.69889 6.3669C1.69463 6.36026 1.68515 6.35836 1.67851 6.36263C1.67425 6.36547 1.67188 6.37021 1.67188 6.37495V12.9823C1.67235 12.9904 1.67899 12.997 1.68704 12.997L2.78725 12.9947C2.7953 12.9947 2.80194 12.988 2.80194 12.98L2.78867 8.06863C2.78867 8.06579 2.78772 8.06294 2.7863 8.06057Z" fill="#F16422"/>
<path d="M4.55583 10.5254L3.46843 8.83174C3.46416 8.8251 3.45468 8.82321 3.44804 8.82747C3.44378 8.83032 3.44141 8.83506 3.44141 8.8398V12.9823C3.44188 12.9903 3.44852 12.997 3.45657 12.997L4.55678 12.9946C4.56484 12.9946 4.57147 12.988 4.57147 12.9799L4.5582 10.5335C4.5582 10.5306 4.55725 10.5278 4.55583 10.5254Z" fill="#F16422"/>
<path d="M6.95485 4.2316H5.39058C5.25643 4.2316 5.13129 4.16334 5.05877 4.05005L3.24658 1.22441C3.07831 0.961801 3.26697 0.617188 3.5784 0.617188H5.14267C5.27682 0.617188 5.40196 0.685446 5.47448 0.798737L7.28619 3.62437C7.45447 3.88698 7.26581 4.2316 6.95438 4.2316H6.95485Z" fill="#F16422"/>
<path d="M3.77125 4.2316H2.20699C2.07284 4.2316 1.9477 4.16334 1.87517 4.05005L0.0629908 1.22441C-0.105287 0.961801 0.0833736 0.617188 0.394805 0.617188H1.95907C2.09322 0.617188 2.21836 0.685446 2.29089 0.798737L4.10259 3.62437C4.27087 3.88698 4.08221 4.2316 3.77078 4.2316H3.77125Z" fill="#F16422"/>
<path d="M9.6907 8.61343H8.12643C7.99229 8.61343 7.86714 8.54517 7.79462 8.43188L5.98291 5.60624C5.81464 5.34364 6.0033 4.99902 6.31473 4.99902H7.879C8.01314 4.99902 8.13828 5.06728 8.21081 5.18057L10.0225 8.00621C10.1908 8.26882 10.0021 8.61343 9.6907 8.61343Z" fill="#F16422"/>
<path d="M6.50711 8.61343H4.94284C4.80869 8.61343 4.68355 8.54517 4.61103 8.43188L2.79932 5.60624C2.63104 5.34364 2.8197 4.99902 3.13113 4.99902H4.6954C4.82955 4.99902 4.95469 5.06728 5.02722 5.18057L6.83892 8.00621C7.0072 8.26882 6.81854 8.61343 6.50711 8.61343Z" fill="#F16422"/>
<path d="M12.5266 12.9953H10.9624C10.8282 12.9953 10.7031 12.927 10.6306 12.8137L8.81885 9.98808C8.65057 9.72547 8.83923 9.38086 9.15066 9.38086H10.7149C10.8491 9.38086 10.9742 9.44912 11.0467 9.56241L12.8585 12.388C13.0267 12.6507 12.8381 12.9953 12.5266 12.9953Z" fill="#F16422"/>
<path d="M9.34305 12.9953H7.77878C7.64463 12.9953 7.51949 12.927 7.44696 12.8137L5.63526 9.98808C5.46698 9.72547 5.65564 9.38086 5.96707 9.38086H7.53134C7.66549 9.38086 7.79063 9.44912 7.86315 9.56241L9.67486 12.388C9.84314 12.6507 9.65448 12.9953 9.34305 12.9953Z" fill="#F16422"/>
</svg>
