<svg width="48" height="46" viewBox="0 0 48 46" fill="none" xmlns="http://www.w3.org/2000/svg">
<path d="M23.7369 0H24.2014C25.3371 0.204585 25.8317 0.8678 25.927 1.99414C26.0268 3.16545 26.2637 6.10833 25.4555 7.03233C24.5916 8.01929 22.7173 7.76524 22.1971 6.58719C21.8 5.69016 21.9742 3.81742 21.9835 2.70682C21.9951 1.27922 22.218 0.325987 23.7369 0Z" fill="#F16422"/>
<path d="M12.1477 3.07846L12.0075 3.15809C11.108 3.66891 10.8067 4.78882 11.3344 5.65949L13.3981 9.06454C13.9258 9.9352 15.0827 10.2269 15.9821 9.71611L16.1223 9.63647C17.0218 9.12565 17.3231 8.00574 16.7954 7.13507L14.7317 3.73002C14.204 2.85935 13.0471 2.56764 12.1477 3.07846Z" fill="#F16422"/>
<path d="M33.2258 3.73043L31.1621 7.13547C30.6325 8.00935 30.9349 9.1334 31.8377 9.6461L31.9739 9.72346C32.8766 10.2362 34.0378 9.94337 34.5675 9.06949L36.6312 5.66445C37.1608 4.79057 36.8583 3.66652 35.9556 3.15382L35.8194 3.07646C34.9166 2.56375 33.7555 2.85655 33.2258 3.73043Z" fill="#F16422"/>
<path d="M3.46082 11.4325L3.37879 11.5684C2.85138 12.4421 3.1555 13.5643 4.05806 14.0748L7.57115 16.0621C8.47371 16.5726 9.63293 16.2782 10.1603 15.4045L10.2424 15.2686C10.7698 14.3949 10.4657 13.2728 9.56311 12.7622L6.05001 10.775C5.14745 10.2644 3.98823 10.5588 3.46082 11.4325Z" fill="#F16422"/>
<path d="M41.9216 10.7797L38.404 12.7774C37.5024 13.2895 37.2003 14.4121 37.7293 15.2849L37.8116 15.4207C38.3406 16.2935 39.5003 16.5859 40.4019 16.0739L43.9195 14.0761C44.8211 13.5641 45.1232 12.4414 44.5942 11.5686L44.5119 11.4328C43.983 10.56 42.8232 10.2676 41.9216 10.7797Z" fill="#F16422"/>
<path d="M23.9778 34.5118C30.5347 34.5118 35.8502 29.3664 35.8502 23.0191C35.8502 16.6718 30.5347 11.5264 23.9778 11.5264C17.4209 11.5264 12.1055 16.6718 12.1055 23.0191C12.1055 29.3664 17.4209 34.5118 23.9778 34.5118Z" fill="#F16422"/>
<path d="M6.19731 21.1021H2.11909C1.08143 21.1021 0.240234 21.9163 0.240234 22.9208V23.1142C0.240234 24.1187 1.08143 24.933 2.11909 24.933H6.19731C7.23497 24.933 8.07617 24.1187 8.07617 23.1142V22.9208C8.07617 21.9163 7.23497 21.1021 6.19731 21.1021Z" fill="#F16422"/>
<path d="M47.7596 22.945V23.226C47.5134 24.3568 46.8515 24.9301 45.7739 24.9436C44.5244 24.9593 42.1021 25.1999 41.0083 24.7435C39.5126 24.1185 39.4615 22.0749 40.9037 21.3353C41.8583 20.8474 44.5059 21.0542 45.6137 21.1239C46.8748 21.2026 47.5994 21.7422 47.7596 22.945Z" fill="#F16422"/>
<path d="M7.57147 29.9726L4.04634 31.9667C3.14378 32.4772 2.83966 33.5994 3.36708 34.4731L3.4491 34.609C3.97651 35.4827 5.13573 35.7771 6.03829 35.2665L9.56342 33.2725C10.466 32.7619 10.7701 31.6398 10.2427 30.766L10.1607 30.6302C9.63325 29.7565 8.47403 29.4621 7.57147 29.9726Z" fill="#F16422"/>
<path d="M37.7873 30.607L37.7048 30.7426C37.1742 31.6145 37.4743 32.7376 38.375 33.2512L41.9009 35.2618C42.8017 35.7753 43.9619 35.4849 44.4925 34.613L44.575 34.4774C45.1056 33.6054 44.8055 32.4823 43.9048 31.9687L40.3789 29.9582C39.4782 29.4446 38.3179 29.735 37.7873 30.607Z" fill="#F16422"/>
<path d="M13.3918 36.983L11.3436 40.376C10.8162 41.2497 11.1203 42.3719 12.0229 42.8824L12.1552 42.9573C13.0578 43.4679 14.217 43.1735 14.7444 42.2998L16.7926 38.9068C17.3201 38.0331 17.0159 36.9109 16.1134 36.4003L15.981 36.3255C15.0785 35.8149 13.9193 36.1093 13.3918 36.983Z" fill="#F16422"/>
<path d="M31.9621 36.3065L31.8259 36.3838C30.9243 36.8959 30.6222 38.0186 31.1512 38.8914L33.2243 42.312C33.7533 43.1848 34.913 43.4772 35.8147 42.9651L35.9509 42.8878C36.8525 42.3757 37.1546 41.253 36.6256 40.3802L34.5525 36.9596C34.0235 36.0868 32.8638 35.7944 31.9621 36.3065Z" fill="#F16422"/>
<path d="M24.0841 38.4146H23.8843C22.848 38.4146 22.0078 39.2278 22.0078 40.2311V44.1834C22.0078 45.1866 22.848 45.9999 23.8843 45.9999H24.0841C25.1205 45.9999 25.9606 45.1866 25.9606 44.1834V40.2311C25.9606 39.2278 25.1205 38.4146 24.0841 38.4146Z" fill="#F16422"/>
</svg>
