<svg width="122" height="42" viewBox="0 0 122 42" fill="none" xmlns="http://www.w3.org/2000/svg">
<path d="M113.851 31.676C118.161 33.7585 120.336 30.7924 120.952 26.8735C121.293 24.7055 121.415 22.571 121.321 20.4698C121.318 20.4063 121.345 20.3671 121.401 20.3523C122.62 27.0183 121.493 37.2085 112.592 37.753C111.141 37.8412 109.59 37.6915 107.94 37.3038C104.237 36.4314 101.113 35.0702 97.7934 33.2289C97.343 31.551 95.5338 30.905 93.9376 30.957C88.8555 27.7743 83.9255 24.3813 79.2233 20.6554C76.7571 18.7015 74.7389 16.5967 75.6682 13.2445C75.815 12.7165 76.152 11.967 76.6792 10.9961C77.6147 9.27438 78.6005 7.58117 79.6366 5.91642C81.3715 3.12849 85.3795 -2.49191 88.6241 2.83646C92.7257 9.57302 97.3916 15.9614 102.622 22.0017C104.622 24.31 106.737 26.4396 108.969 28.3906C110.47 29.7023 112.078 30.8877 113.851 31.676Z" fill="white"/>
<path d="M121.401 20.3521C121.345 20.3669 121.318 20.4061 121.321 20.4696C121.416 22.5708 121.293 24.7054 120.952 26.8733C120.336 30.7923 118.162 33.7584 113.852 31.6758C116.227 27.9363 114.844 23.3442 113.286 19.601C112.686 18.1594 112.425 17.2511 112.513 15.8318C112.688 12.9989 113.501 10.3702 114.954 7.94564C115.228 7.49026 116.152 6.33946 116.802 6.69212C116.964 6.78122 117.148 6.99694 117.352 7.3393C119.672 11.2397 120.711 15.7711 121.401 20.3521Z" fill="white"/>
<path d="M78.0548 41.6202C77.5933 41.5893 77.3272 41.2193 77.4064 40.7664C78.5374 34.2493 79.3075 29.8663 79.7167 27.6175C79.9122 26.5434 80.8972 26.6906 81.7214 26.6882C82.3623 26.6857 82.8796 26.8701 82.7484 27.6175C81.9787 32.0004 81.2053 36.383 80.4282 40.7652C80.2377 41.8392 78.8146 41.6709 78.0548 41.6202Z" fill="white"/>
<path d="M13.0791 27.7457C13.7078 27.7494 13.9825 28.1317 13.881 28.7294C13.2392 32.497 12.7776 35.1063 12.4963 36.5574C11.7984 40.1571 9.50174 41.6172 5.99982 41.8115C3.65489 41.9414 0.436337 41.5838 0.0589215 38.6301C-0.101944 37.3716 0.0886197 36.4683 0.364566 34.8782C0.72507 32.8109 1.09011 30.7439 1.45969 28.6774C1.59457 27.9238 2.17245 27.7506 2.89511 27.737C4.03107 27.716 4.65968 27.685 4.41219 29.0845C4.01539 31.3243 3.6223 33.5649 3.23293 35.8063C3.09805 36.5797 2.96564 37.337 3.2948 38.02C3.91475 39.3069 6.0951 39.2055 7.23353 38.9357C8.64296 38.6028 9.30746 37.5164 9.54752 36.154C9.96907 33.7492 10.3968 31.3453 10.8307 28.9422C11.0819 27.5563 11.8813 27.737 13.0791 27.7457Z" fill="white"/>
<path d="M39.728 31.983C39.7379 30.8606 38.4028 31.1143 37.5799 31.1762C37.2103 31.2034 36.9265 31.4542 36.7285 31.9285C36.8597 31.0029 36.9801 30.3293 37.0898 29.9078C37.3336 28.9612 38.4275 29.1109 39.3123 29.1332C40.1092 29.153 40.1327 29.6937 40.0263 30.3409C39.9363 30.8895 39.8369 31.4368 39.728 31.983Z" fill="white"/>
<path d="M25.55 30.9419C28.4939 31.0595 30.2399 32.141 29.7029 35.4338C29.4306 37.1018 29.1427 38.7674 28.8391 40.4305C28.5991 41.7446 27.9432 41.6444 26.8023 41.6308C25.9968 41.6209 25.6948 41.3413 25.8384 40.5382C26.1403 38.8544 26.4344 37.1686 26.7206 35.4808C26.879 34.5515 26.6514 33.6939 25.6107 33.5219C23.7397 33.2113 22.5159 33.7434 22.1607 35.6949C21.872 37.2722 21.5853 38.8503 21.3007 40.4293C21.0706 41.7075 20.4617 41.6345 19.3332 41.632C18.5969 41.6308 18.1515 41.4873 18.2999 40.6013C18.6811 38.3417 18.995 36.5837 19.2416 35.3273C19.895 32.0098 22.3562 30.8132 25.55 30.9419Z" fill="white"/>
<path d="M93.9371 30.9573C95.5334 30.9053 97.3425 31.5513 97.793 33.2292C97.9266 33.8933 97.9097 34.6003 97.7422 35.3502C97.4403 36.7076 96.3687 37.1952 95.0929 37.3301C93.5156 37.4959 91.9428 37.6588 90.3746 37.8189C90.3596 37.8204 90.3452 37.8251 90.3322 37.8327C90.3192 37.8402 90.3079 37.8504 90.299 37.8627C90.2901 37.8749 90.2839 37.8889 90.2807 37.9037C90.2776 37.9186 90.2775 37.9339 90.2805 37.9488C90.7161 40.0004 93.7973 39.4609 95.2216 39.1206C95.7524 38.9944 96.2944 39.0724 96.235 39.7765C96.1756 40.4806 95.969 41.1129 95.2203 41.3344C92.0191 42.2798 86.9939 42.3182 87.2265 37.4526C87.4146 33.5361 89.8697 30.7915 93.9371 30.9573ZM95.0446 34.1016C94.8553 33.2577 93.676 33.1377 92.9893 33.2082C91.659 33.3443 90.7693 34.291 90.5342 35.5927C90.5276 35.6274 90.542 35.643 90.5775 35.6397C91.7885 35.5152 93.0033 35.4017 94.2217 35.2995C94.9353 35.2392 95.2096 34.84 95.0446 34.1016Z" fill="white"/>
<path d="M63.7216 33.7396C63.4085 33.7829 63.1054 33.4476 63.1054 33.1221C63.1066 32.1223 63.4283 31.5407 64.4492 31.3155C66.6778 30.8255 71.4605 30.2711 72.0532 33.5466C72.1242 33.9393 72.0973 34.5423 71.9728 35.3557C71.6741 37.296 71.4312 38.6039 71.2439 39.2796C70.7428 41.0825 69.3395 41.622 67.6195 41.6394C65.8277 41.6567 64.073 41.8089 62.645 41.2533C61.0525 40.6333 61.2826 38.5458 61.8321 37.317C63.0212 34.6578 66.6494 35.2431 68.9361 35.2146C68.9716 35.2138 68.9943 35.1965 69.0042 35.1627C69.7763 32.4948 64.8452 33.5812 63.7216 33.7396ZM64.323 39.0073C64.4232 39.7164 66.8808 39.4949 67.3943 39.4751C68.4981 39.4343 68.4981 38.2488 68.6231 37.4408C68.6305 37.3962 68.6119 37.3735 68.5674 37.3727C67.2194 37.3463 66.2447 37.3459 65.6433 37.3715C64.6138 37.4144 64.1737 37.9597 64.323 39.0073Z" fill="white"/>
<path d="M39.728 31.9825C39.2677 34.6966 38.79 37.409 38.2951 40.1198C38.1193 41.0813 38.0253 41.6406 36.8782 41.6332C36.2186 41.6295 34.9886 41.8312 35.1681 40.7336C35.5195 38.5854 36.0396 35.6502 36.7285 31.928C36.9265 31.4537 37.2102 31.2029 37.5798 31.1757C38.4027 31.1138 39.7379 30.8601 39.728 31.9825Z" fill="white"/>
<path d="M48.8644 41.7387C47.5391 41.5073 47.1171 40.2687 46.934 39.1253C46.5751 36.8798 46.2311 34.6318 45.902 32.3813C45.6767 30.8382 47.153 31.1389 48.0984 31.1513C48.8112 31.1599 48.9238 31.7205 48.9992 32.3813C49.2294 34.3719 49.4658 36.3617 49.7083 38.3506C49.7306 38.5239 49.8605 38.9013 50.0139 38.9991C50.6821 39.426 51.1883 38.5226 51.4531 37.951C52.3638 35.9834 53.2894 34.0229 54.2299 32.0695C54.5157 31.4743 54.8362 31.1488 55.4896 31.1414C56.1899 31.134 57.9075 30.8654 57.2096 32.2712C56.1 34.5051 54.9748 36.7313 53.8339 38.9496C52.7078 41.1398 51.4766 42.1929 48.8644 41.7387Z" fill="white"/>
</svg>
