<svg width="42" height="49" viewBox="0 0 42 49" fill="none" xmlns="http://www.w3.org/2000/svg">
<path d="M36.4796 25.456C36.4422 25.4539 36.4203 25.4716 36.4162 25.509C36.3153 26.3479 36.6553 27.4498 36.8112 28.1588C36.9339 28.717 36.8933 29.0674 36.6168 29.5289C36.518 29.6942 36.3517 29.845 36.2467 30.0373C36.2083 30.1101 36.1293 30.1516 36.0471 30.1444C35.6854 30.1111 35.3423 30.0259 35.1708 29.6682C34.5678 28.4083 34.6843 26.7887 34.2196 24.9112C34.2123 24.879 34.1894 24.852 34.1593 24.8385L33.2819 24.4341C33.2403 24.4154 33.2185 24.3831 33.2154 24.3374C33.2008 24.091 33.1322 23.8613 33.0095 23.6471C32.9929 23.616 32.9867 23.5785 32.994 23.5432C33.1114 23.0047 33.5626 22.6783 33.9171 22.2947C33.941 22.2697 33.9535 22.2354 33.9503 22.2011C33.7747 19.9297 33.3609 17.6499 33.022 15.3972C32.9846 15.1425 32.9638 14.787 32.9617 14.3296C32.9617 14.2963 32.9752 14.2641 32.9981 14.2412C33.3786 13.8608 33.8402 13.7235 34.3807 13.8296C34.4192 13.8369 34.4535 13.8597 34.4753 13.893C34.5221 13.9647 34.5564 14.0427 34.5772 14.129C35.125 16.3131 35.466 18.5585 35.6012 20.8674C35.6064 20.9453 35.6427 20.9651 35.7114 20.9287C36.6709 20.4141 37.6584 19.9068 38.6751 19.4058C39.1637 19.1656 39.7095 19.0523 40.3135 19.0679C40.2875 18.3433 40.2345 17.6156 40.1544 16.8848C40.013 15.5895 39.7833 14.3057 39.4662 13.0343C38.1668 8.91665 35.3787 4.87278 31.6436 2.61175C27.7317 0.24364 23.4955 -0.398805 18.9808 0.222849C13.6655 0.955735 9.40854 3.55462 6.9687 8.38647C6.87098 8.66715 6.76599 8.94575 6.65372 9.22124C5.86469 11.1652 5.41976 13.3815 5.23057 15.4295C5.14324 16.3755 5.17755 17.3433 5.33452 18.3319C5.66094 17.8506 6.12562 17.6063 6.7296 17.5969C6.76079 17.5969 6.7847 17.6073 6.80341 17.6312L9.04157 20.4453C9.04885 20.4547 9.05821 20.4609 9.0686 20.464C9.07588 20.4671 9.08212 20.4682 9.08939 20.4682C9.09459 20.4682 9.10083 20.4682 9.10603 20.4651C9.11434 20.463 9.12162 20.4599 9.12786 20.4547C9.12994 20.4526 9.13201 20.4505 9.13409 20.4484C10.2246 19.2571 9.82852 17.2248 10.4751 15.7943C10.4897 15.7632 10.5146 15.7372 10.5448 15.7216C11.0957 15.4378 11.7735 15.4139 12.1176 16.022C12.1374 16.0553 12.1405 16.0958 12.128 16.1332C12.0251 16.4274 12.0189 16.7227 12.1083 17.0169C12.1197 17.0532 12.1166 17.0875 12.0989 17.1208C11.5604 18.1427 11.4845 19.6563 11.4003 20.8383C11.2537 22.8706 10.261 25.0339 8.16315 22.5047C7.33774 21.5098 6.35952 20.4671 5.50293 19.3257C5.83559 20.6927 6.31274 22.0098 6.9344 23.2781C8.24631 25.7034 9.89193 27.8823 11.8692 29.8169C12.1852 30.1246 12.5189 30.4146 12.8723 30.688C12.7892 29.5726 12.7164 28.4488 12.2923 27.4082C12.2642 27.3386 12.2351 27.3376 12.2049 27.4072L12.1571 27.5174C12.154 27.5268 12.1467 27.5351 12.1384 27.5403C12.1155 27.5559 12.0833 27.5496 12.0677 27.5268C11.8224 27.1754 12.0085 26.903 11.8858 26.5225C11.8764 26.4914 11.8775 26.4581 11.891 26.429C12.1083 25.9258 12.5282 25.6368 12.7954 25.1483C12.812 25.1181 12.838 25.1004 12.8713 25.0942C14.7539 24.7511 18.0306 24.5516 18.6491 26.9477C18.9402 28.0767 18.015 29.4115 17.2572 30.1568C16.6459 30.7587 15.9193 31.1527 15.0793 31.3409C15.046 31.3482 15.0325 31.369 15.0388 31.4033L15.2456 32.4917C19.2562 35.0032 23.5756 36.6884 28.2037 37.5481C30.3732 37.9046 32.5594 38.0741 34.6739 37.7913C35.8683 37.6125 36.7696 37.3266 37.4713 36.2777C38.2416 35.1259 38.6918 33.708 38.9963 32.3441C39.4444 30.3356 39.7947 28.295 40.0463 26.2221C39.4142 26.0329 38.6554 25.8396 37.7697 25.642C37.3154 25.5402 36.885 25.4778 36.4796 25.456ZM16.7468 2.36849C19.3498 1.72397 22.0256 1.49422 24.7742 1.6803C27.9365 1.89341 31.076 3.07747 32.9347 5.7616C33.1561 6.08178 33.2902 6.47681 33.338 6.94773C33.547 9.00605 32.5106 10.4167 30.3109 9.57053C28.8794 9.0206 27.5176 8.06005 26.5757 6.82298C25.9957 6.05995 25.4083 5.30211 24.8147 4.54844C23.5184 2.90282 21.7189 2.36329 19.6887 2.28637C18.645 2.24686 17.6668 2.2874 16.754 2.40799C16.5139 2.44022 16.5118 2.42671 16.7468 2.36849ZM16.6324 6.12544C16.596 5.61294 17.9433 4.99129 18.2011 5.70026C18.5005 6.52359 18.6918 7.23673 18.7749 7.84071C18.9173 8.86467 19.1419 10.5539 19.4475 12.9085C19.7667 15.3681 20.5266 17.8672 21.3135 20.226C21.4466 20.6241 21.5952 21.1366 21.4102 21.5067C21.3956 21.5368 21.3728 21.5587 21.3416 21.5722L20.4871 21.9433C20.459 21.9547 20.4268 21.9547 20.3987 21.9412L19.8322 21.6595C19.802 21.645 19.7812 21.6221 19.7698 21.5899C18.2915 17.336 17.2249 13.0063 17.0815 8.50394C17.069 8.12555 16.8985 7.8511 16.7915 7.4935C16.7811 7.45815 16.7561 7.42904 16.7228 7.41241L16.6147 7.35939C16.5835 7.3438 16.5711 7.31989 16.5773 7.28558C16.6438 6.92278 16.6615 6.53607 16.6324 6.12544ZM21.5412 17.7633C21.8853 16.7143 22.2907 15.8609 22.7585 15.2028C23.4009 14.2995 24.5902 13.4491 25.6568 12.6715C26.2992 12.2027 27.0727 11.9158 27.4147 12.8898C28.1288 14.9263 28.5603 16.4815 29.7121 17.9088C29.9626 18.2186 31.5323 19.6636 30.9096 20.0794C30.6789 20.2343 30.4439 20.385 30.2069 20.5316C30.182 20.5482 30.1508 20.5545 30.1206 20.5513C28.6112 20.3985 27.4625 18.0283 26.7119 16.8817C26.7026 16.8672 26.688 16.8578 26.6724 16.8536C26.6672 16.8526 26.6631 16.8516 26.6579 16.8516C26.6454 16.8516 26.6329 16.8557 26.6225 16.862C26.6121 16.8692 26.6028 16.8796 26.5976 16.8921C25.9988 18.3548 25.2389 20.3601 23.5995 20.8861C21.3946 21.593 21.0692 19.2082 21.5422 17.7633H21.5412ZM11.944 12.4023C11.8203 11.9917 12.2299 11.5062 12.8578 11.318C13.4857 11.1288 14.0948 11.3097 14.2175 11.7203C14.3412 12.1309 13.9316 12.6164 13.3037 12.8046C12.6759 12.9938 12.0667 12.8129 11.944 12.4023ZM15.7259 22.4766L15.1687 22.7874C15.1375 22.8051 15.1105 22.829 15.0887 22.8581C15.0304 22.9371 14.9618 23.0026 14.8818 23.0556C14.8527 23.0754 14.8225 23.0775 14.7903 23.0629C14.52 22.9423 14.1593 22.8945 14.0169 22.5982C13.4888 21.5036 13.5002 20.1979 13.3516 18.5253C13.2684 17.5917 13.048 16.6696 12.8848 15.734C12.7486 14.9523 12.8162 14.1342 13.888 14.2464C14.019 14.26 14.1032 14.3192 14.1395 14.4232C15.0481 17.0013 15.3943 19.6875 15.7737 22.3799C15.78 22.4225 15.7644 22.4548 15.7259 22.4766ZM18.4568 22.1107C18.226 22.199 17.9994 22.2947 17.7749 22.3955C17.7426 22.4101 17.7104 22.409 17.6792 22.3934L17.147 22.1273C17.1127 22.1107 17.0888 22.0847 17.0763 22.0483C15.5398 17.7726 14.4462 13.235 14.3786 8.75032C14.3766 8.58919 14.256 8.30539 14.0148 7.89892C13.9971 7.86878 13.9732 7.84591 13.9441 7.82823C13.9296 7.81888 13.915 7.80848 13.9025 7.79601C13.8797 7.77314 13.8713 7.74611 13.8765 7.71492C13.9472 7.30118 13.9649 6.88432 13.9275 6.4633C13.9244 6.43003 13.9348 6.39677 13.9566 6.37182C14.2695 5.99342 15.3236 5.45077 15.5305 6.2138C15.7446 7.00283 15.99 7.69829 16.07 8.28252C16.2925 9.89903 16.5087 11.5155 16.7187 13.1341C17.0659 15.8027 17.8414 18.2851 18.6699 20.832C18.7926 21.2083 18.961 21.9184 18.4568 22.1107ZM30.7371 29.7025C30.7412 29.7389 30.7267 29.767 30.6934 29.7857L29.7724 30.319C29.7391 30.3388 29.6954 30.3294 29.6715 30.2982C29.5011 30.0737 29.2796 29.9209 29.0062 29.8398C29.001 29.8377 28.9948 29.8377 28.9896 29.8377H28.9854C28.9854 29.8377 28.9771 29.8387 28.974 29.8398C28.9615 29.8429 28.9511 29.8502 28.9428 29.8595C28.9418 29.8616 28.9397 29.8637 28.9387 29.8658C28.9355 29.871 28.9324 29.8762 28.9314 29.8814C28.9303 29.8876 28.9293 29.8949 28.9293 29.9021L28.9553 30.2047C28.9584 30.2369 28.9418 30.2691 28.9137 30.2868L28.0925 30.8128C28.0789 30.8221 28.0623 30.8253 28.0457 30.8211C26.9749 30.5664 26.3585 29.8315 25.794 28.9374C25.4135 28.3355 25.0351 27.744 24.6609 27.1629C24.6526 27.1494 24.6401 27.14 24.6276 27.1338C24.6266 27.1328 24.6255 27.1328 24.6245 27.1317C24.6203 27.1296 24.6162 27.1286 24.611 27.1276C24.5902 27.1224 24.5673 27.1255 24.5476 27.138C24.5413 27.1432 24.5351 27.1484 24.5299 27.1546C24.5247 27.1598 24.5205 27.1671 24.5174 27.1743C23.9987 28.3771 23.3989 29.9292 22.3344 30.7203C21.5204 31.3232 20.2542 31.5883 19.6138 30.6059C18.6325 29.0996 20.0016 26.1545 21.0526 25.0381C21.8832 24.1544 22.7346 23.5598 23.771 22.7677C24.3698 22.3103 25.0965 22.3934 25.346 23.1762C26.0123 25.2688 26.7545 27.4467 28.4137 28.9811C28.4345 28.9998 28.4521 29.0216 28.4646 29.0455C28.4958 29.1006 28.5343 29.1526 28.5779 29.2015C28.5904 29.214 28.6112 29.214 28.6237 29.2015C28.633 29.1932 28.6361 29.1797 28.6309 29.1672C28.0155 27.6266 27.2151 26.0308 26.8949 24.4039C26.8325 24.0817 26.9219 23.8353 27.1652 23.6648C28.1631 22.9662 29.001 23.8571 29.0582 24.8354C29.0624 24.8884 29.0811 24.8956 29.1154 24.8551C30.2807 23.5224 30.8712 21.2853 33.0095 21.3279C33.4992 21.3383 33.5189 21.8539 33.8183 22.1523C33.8298 22.1637 33.8381 22.1762 33.8443 22.1897C33.8464 22.1938 33.8474 22.198 33.8495 22.2022C33.8599 22.2344 33.8578 22.2687 33.8433 22.2988C33.8422 22.302 33.8402 22.3061 33.837 22.3092C33.835 22.3134 33.8329 22.3175 33.8298 22.3207C33.8266 22.3259 33.8225 22.33 33.8183 22.3342C33.8152 22.3383 33.811 22.3415 33.8069 22.3446C31.5698 24.0993 30.4813 26.8802 30.7371 29.7025Z" fill="white"/>
<path d="M30.3133 9.57085C28.8818 9.02093 27.52 8.06038 26.5781 6.82331C25.997 6.06027 25.4107 5.30244 24.8171 4.54876C23.5208 2.90315 21.7213 2.36362 19.6911 2.28669C18.6474 2.24719 17.6692 2.28669 16.7564 2.40832C16.5163 2.44054 16.5132 2.42703 16.7491 2.36881C19.3522 1.72429 22.028 1.49455 24.7766 1.68063C27.9389 1.89374 31.0784 3.07779 32.9371 5.76192C33.1585 6.0821 33.2926 6.47714 33.3404 6.94805C33.5494 9.00637 32.513 10.417 30.3133 9.57085Z" fill="white"/>
<path d="M13.894 36.1761C13.1705 35.7322 12.5291 35.2935 11.9719 34.8621C10.0206 33.3516 8.24921 31.5833 6.86972 29.4918C5.90709 28.0312 5.07649 26.4978 4.37583 24.8897C2.34246 19.4777 3.4974 13.4452 6.66597 8.73081C6.70547 8.67364 6.80631 8.55825 6.97056 8.38672C6.87284 8.6674 6.76784 8.946 6.65557 9.22148C5.86655 11.1654 5.42162 13.3818 5.23242 15.4297C5.1451 16.3757 5.1794 17.3435 5.33638 18.3321C5.31247 18.6939 5.3686 19.0255 5.50478 19.326C5.83744 20.693 6.3146 22.0101 6.93625 23.2783C6.88427 23.3158 6.86244 23.3501 6.87284 23.3802C8.04234 26.6881 10.2701 29.4959 12.9875 31.8172C13.2214 33.2404 13.5239 34.6937 13.894 36.1761Z" fill="#DFDFDF"/>
<path d="M41.6582 24.6294C41.6603 24.6959 41.6467 24.7437 41.6166 24.7739L40.1685 24.3768C40.3411 23.0617 40.3972 21.7602 40.339 20.4712L40.6862 20.1458C40.7111 20.1229 40.7215 20.0948 40.7195 20.0616L40.6592 19.2403C40.6571 19.2019 40.6301 19.1676 40.5926 19.1561L40.314 19.0678C40.288 18.3432 40.235 17.6155 40.155 16.8847C40.0136 15.5894 39.7839 14.3056 39.4668 13.0342C39.8265 13.739 40.1155 14.476 40.3359 15.2453C40.3161 15.3461 40.3161 15.4335 40.3369 15.5094C41.1228 18.4378 41.5636 21.4774 41.6582 24.6294Z" fill="white"/>
<path d="M23.9505 16.486C24.3174 15.8841 24.8622 15.1866 25.4194 14.7614C25.4516 14.7365 25.4994 14.7427 25.5244 14.7749C25.5348 14.7884 25.54 14.8051 25.54 14.8217C25.5254 15.9507 24.8591 17.1056 24.3611 18.0963C24.1813 18.4518 23.9089 18.7148 23.544 18.8843C23.4889 18.9103 23.4224 18.8864 23.3964 18.8313C23.3912 18.8209 23.3881 18.8084 23.386 18.797C23.28 17.958 23.4952 17.2335 23.9505 16.486Z" fill="white"/>
<path d="M41.9077 24.7279V24.7352C41.9077 24.7903 41.8807 24.8257 41.8266 24.8412C41.7684 24.8589 41.6988 24.8371 41.6177 24.7737C41.6478 24.7435 41.6613 24.6957 41.6593 24.6292C41.5647 21.4772 41.1239 18.4376 40.338 15.5092C40.3172 15.4333 40.3172 15.346 40.337 15.2451C41.3994 18.2962 41.811 21.4606 41.9077 24.7279Z" fill="#BEBEBE"/>
<path d="M40.1678 24.3763C39.8435 24.2329 39.5555 24.1736 39.3019 24.1975C39.2676 24.2006 39.2333 24.1944 39.2021 24.1788C38.1698 23.6299 36.9972 23.8555 36.0262 23.1465C35.9878 23.1185 35.9784 23.0634 36.0065 23.0249C36.0096 23.0207 36.0117 23.0176 36.0148 23.0145C36.3599 22.66 36.7571 22.3689 37.2061 22.1433C38.2779 21.6049 39.3175 21.1838 40.3383 20.4707C40.3965 21.7598 40.3404 23.0613 40.1678 24.3763Z" fill="white"/>
<path d="M12.9863 31.8172C10.2689 29.4959 8.04116 26.6881 6.87166 23.3802C6.86127 23.35 6.8831 23.3157 6.93508 23.2783C8.247 25.7036 9.89261 27.8825 11.8698 29.8171C12.1859 30.1248 12.5196 30.4149 12.873 30.6883L12.9863 31.8172Z" fill="white"/>
<path d="M14.1032 36.7728C14.1094 36.7884 14.1021 36.8061 14.0865 36.8123C14.0782 36.8154 14.0688 36.8144 14.0605 36.8102C13.5512 36.5337 13.0064 36.1085 12.6436 35.8538C9.24843 33.4805 6.48322 30.0219 4.82825 26.2338C4.80538 26.1818 4.78978 26.1756 4.7482 26.1402C4.72741 26.1215 4.7139 26.0987 4.70974 26.0706C4.64217 25.6329 4.38747 25.3148 4.375 24.8896C5.07566 26.4978 5.90626 28.0312 6.86889 29.4918C8.24838 31.5833 10.0198 33.3516 11.971 34.8621C12.5282 35.2935 13.1696 35.7322 13.8932 36.1761L14.1032 36.7728Z" fill="#BEBEBE"/>
<path d="M21.9084 26.6752C22.3169 26.0775 22.8492 25.328 23.3513 25.013C23.3845 24.9922 23.4292 25.0015 23.45 25.0348C23.4573 25.0473 23.4615 25.0608 23.4615 25.0754C23.4344 26.1887 22.8065 27.2719 22.3325 28.2574C22.1402 28.6566 21.8387 28.956 21.4281 29.1556C21.3886 29.1754 21.3408 29.1587 21.321 29.1182C21.3169 29.1099 21.3148 29.1015 21.3137 29.0932C21.2056 28.219 21.4042 27.4133 21.9084 26.6752Z" fill="white"/>
<path d="M41.726 26.6822C41.6657 27.9952 41.6439 29.3227 41.5088 30.6263C41.3227 32.4164 41.1127 34.3198 40.1542 35.9124C39.622 36.7981 38.3995 37.2025 37.4555 37.4458C36.7601 37.6287 35.3494 38.003 34.6758 37.7909C35.8702 37.6121 36.7715 37.3262 37.4732 36.2773C38.2435 35.1255 38.6937 33.7075 38.9983 32.3436C39.4463 30.3352 39.7966 28.2946 40.0482 26.2217L41.726 26.6822Z" fill="white"/>
<path d="M16.5754 28.1949C16.3228 28.9392 15.6128 29.4351 14.8726 29.6274C14.8196 29.6409 14.7895 29.6212 14.7822 29.5661L14.408 26.6563C14.3945 26.5482 14.462 26.4464 14.567 26.4172C15.2344 26.2374 15.9735 26.5025 16.5442 26.858C16.8239 27.0316 16.6648 27.9329 16.5754 28.1949Z" fill="white"/>
<path d="M41.7633 30.3343C41.7519 30.4788 41.677 30.6565 41.6656 30.7875C41.4234 33.534 40.2996 41.627 37.1051 42.5989C34.8285 43.2923 32.3273 43.0761 30.0091 42.7123C25.1408 41.9482 20.5107 40.3982 16.1196 38.0623C16.0811 38.0395 16.0686 37.9896 16.0915 37.9511C16.1092 37.921 16.1456 37.9054 16.1799 37.9137C16.3244 37.9542 16.4023 37.8929 16.4127 37.7276C20.3682 39.7506 24.5639 41.233 28.9404 41.9316C30.559 42.1904 32.2109 42.3297 33.8107 42.0241C34.3108 41.9284 34.7047 41.7964 34.9917 41.629C36.2121 40.918 37.1321 38.9012 37.5656 37.6018C37.5812 37.5571 37.5625 37.5072 37.5209 37.4833L37.4554 37.4459C38.3993 37.2026 39.6218 36.7982 40.1541 35.9125C41.1126 34.3199 41.3226 32.4165 41.5086 30.6264C41.6438 29.3228 41.6656 27.9953 41.7259 26.6823C41.8278 26.6719 41.8839 26.7104 41.8964 26.7967V26.8029C41.8974 26.8123 41.8985 26.8216 41.8985 26.832C41.913 27.8851 41.8683 29.0525 41.7633 30.3343Z" fill="#BEBEBE"/>
<path d="M1.25839 30.1794C1.30205 30.5224 1.5318 31.0276 1.50269 31.353C1.3821 32.6857 -0.79057 30.4382 0.310318 30.1295C0.397641 30.1045 0.488082 30.1565 0.513031 30.2438C0.51719 30.2584 0.519269 30.2729 0.519269 30.2875C0.519269 30.5598 0.625303 30.8156 0.836333 31.0536C0.858164 31.0775 0.881034 31.0838 0.905983 31.0713C0.941328 31.0536 0.959 31.0131 0.948605 30.9746C0.862322 30.67 0.789553 30.3561 0.730298 30.0328C0.515111 28.8695 2.28443 29.7594 2.06093 30.3488C2.03286 30.4237 1.97776 30.4767 1.89668 30.5079C1.86029 30.5214 1.81871 30.5131 1.79168 30.485L1.4164 30.1035C1.28854 29.9725 1.23552 29.9974 1.25839 30.1794Z" fill="white"/>
<path d="M2.91883 33.3337C2.44999 33.3441 1.94997 33.396 1.688 33.0894C1.39172 32.7432 1.59548 32.3814 1.98843 32.2796C2.75666 32.081 3.44277 32.2255 4.04571 32.713C4.13095 32.7817 4.14447 32.9054 4.07586 32.9906C4.06858 32.9989 4.0613 33.0072 4.05298 33.0145C3.56439 33.448 3.19951 33.9678 2.95729 34.5749C2.91363 34.684 2.78993 34.7371 2.68077 34.6934C2.64023 34.6768 2.60488 34.6487 2.58097 34.6123C2.36683 34.2828 2.78369 33.6996 2.95833 33.4012C2.9864 33.3544 2.97289 33.3326 2.91883 33.3337ZM3.29619 32.8024C3.29619 32.7318 3.0467 32.6715 2.73691 32.6673C2.42712 32.6631 2.17451 32.7172 2.17451 32.7879C2.17451 32.8586 2.424 32.9189 2.73379 32.923C3.04358 32.9272 3.29619 32.8731 3.29619 32.8024Z" fill="white"/>
<path d="M3.64662 35.6728C3.53747 35.6261 3.46054 35.5481 3.41584 35.4369C3.40233 35.4026 3.40649 35.3703 3.4304 35.3412C4.03334 34.5855 4.7184 33.9149 5.48663 33.3297C5.79122 33.0968 6.11764 32.8619 6.39209 32.5947C6.50228 32.4887 6.62391 32.4918 6.75697 32.6051C6.87652 32.7059 6.87964 32.8109 6.76633 32.9191C6.12388 33.5262 5.31511 34.1052 4.75999 34.653C4.44188 34.967 4.14145 35.2903 3.85869 35.6219C3.80567 35.6832 3.72043 35.704 3.64662 35.6728Z" fill="white"/>
<path d="M28.2041 37.5476C28.1002 37.6432 27.9266 37.6692 27.6854 37.6245C26.9816 37.4946 25.9774 37.294 24.6738 37.0206C21.4096 36.3365 18.3325 35.1837 15.4446 33.563C15.3345 33.2719 15.269 32.9143 15.2461 32.4912C19.2567 35.0028 23.576 36.6879 28.2041 37.5476Z" fill="white"/>
<path d="M37.565 37.6021C37.1315 38.9016 36.2115 40.9183 34.991 41.6294C34.7041 41.7968 34.3101 41.9288 33.8101 42.0244C32.2102 42.33 30.5584 42.1907 28.9398 41.9319C24.5633 41.2333 20.3676 39.7509 16.4121 37.7279C16.3404 37.5897 16.2822 37.4452 16.2385 37.2944C15.8965 36.0979 15.6324 34.8536 15.4453 33.5635C18.3332 35.1841 21.4103 36.337 24.6745 37.021C25.9781 37.2944 26.9823 37.4951 27.6861 37.625C27.9272 37.6697 28.1009 37.6437 28.2048 37.5481C30.3744 37.9047 32.5605 38.0741 34.675 37.7913C35.3486 38.0034 36.7593 37.6292 37.4548 37.4462L37.5203 37.4836C37.5618 37.5075 37.5806 37.5574 37.565 37.6021Z" fill="#DFDFDF"/>
<path d="M6.69784 35.6533L6.45459 35.2365C6.40781 35.1564 6.43484 35.0525 6.51488 35.0057C6.51488 35.0057 6.51696 35.0047 6.518 35.0036C6.63755 34.9381 6.72383 34.9797 6.77893 35.1304C6.86105 35.356 7.03882 35.4257 7.31014 35.3394C7.36524 35.3217 7.42449 35.3467 7.45048 35.3976L7.76339 36.0151C7.78626 36.0619 7.76755 36.1191 7.72077 36.1419C7.70205 36.1513 7.68126 36.1544 7.66151 36.1502C7.39954 36.1003 7.36732 35.8696 7.23529 35.6928C7.21242 35.6617 7.17396 35.6461 7.13654 35.6513L6.79452 35.7001C6.7519 35.7053 6.71967 35.6897 6.69784 35.6533Z" fill="white"/>
<path d="M6.00453 36.9169C5.63548 36.9772 5.02111 37.1061 4.73211 36.8015C4.38802 36.4376 4.75082 36.0676 5.11155 35.9459C5.76023 35.7266 6.41515 35.7838 7.07631 36.1175C7.15947 36.1601 7.19274 36.2619 7.15011 36.3451C7.14908 36.3482 7.147 36.3503 7.14596 36.3534C6.78835 36.9668 6.40164 37.4107 6.27585 38.1435C6.26545 38.208 6.21556 38.2579 6.1511 38.2683C5.49306 38.3764 5.9619 37.2599 6.08561 37.0302C6.13551 36.9377 6.10848 36.8992 6.00453 36.9169ZM6.32159 36.3139C6.31015 36.2464 6.0565 36.2308 5.75503 36.2796C5.45252 36.3285 5.21654 36.4231 5.22798 36.4917C5.23941 36.5593 5.49306 36.5749 5.79454 36.526C6.09705 36.4771 6.33302 36.3825 6.32159 36.3139Z" fill="white"/>
<path d="M8.70217 38.1543C8.96102 38.4786 8.83731 39.0078 8.42565 39.3363C8.01398 39.6648 7.47029 39.6679 7.21145 39.3435C6.9526 39.0192 7.0763 38.4901 7.48797 38.1616C7.89963 37.8331 8.44332 37.8299 8.70217 38.1543ZM7.63454 39.0317C7.99735 39.0628 8.23229 38.909 8.33936 38.5691C8.36535 38.4849 8.31961 38.3955 8.23541 38.3695C8.19694 38.357 8.15536 38.3601 8.11898 38.3778C7.86844 38.4984 7.69068 38.6907 7.58672 38.9547C7.56801 39.0015 7.58361 39.0275 7.63454 39.0317Z" fill="white"/>
<path d="M12.0229 42.0097C11.6268 42.1833 11.2235 42.1604 10.8129 41.9431C10.4636 41.7581 10.4615 41.3755 10.7733 41.1874C11.2245 40.9161 11.7422 40.8475 12.3254 40.9795C12.3576 40.9868 12.3909 40.9712 12.4065 40.9421C12.5791 40.6073 12.7506 40.2767 12.9221 39.9503C13.0687 39.6707 13.261 39.5397 13.5625 39.6873C13.5957 39.7029 13.6124 39.7299 13.6124 39.7674C13.6093 39.9306 13.5521 40.1063 13.4398 40.2934C12.972 41.0751 12.6123 41.5679 12.6186 42.5087C12.6206 42.8205 12.2599 42.9536 12.0988 42.6656C12.0135 42.5128 12.105 42.228 12.0884 42.0492C12.0853 42.0055 12.0634 41.992 12.0229 42.0097ZM11.9855 41.4338C11.9678 41.3724 11.789 41.3704 11.5852 41.4296C11.3815 41.4889 11.2308 41.5855 11.2484 41.6469C11.2661 41.7082 11.4449 41.7103 11.6487 41.651C11.8524 41.5918 12.0031 41.4951 11.9855 41.4338Z" fill="white"/>
<path d="M14.1333 43.0775C14.3121 43.7771 15.0969 43.3623 15.4857 43.197C15.5679 43.1627 15.6625 43.171 15.7373 43.2199C15.7945 43.2584 15.8153 43.3072 15.7976 43.3644C15.7862 43.3987 15.7581 43.433 15.7113 43.4673C15.0075 43.9881 14.048 44.2355 13.6187 43.2178C13.3942 42.6845 13.4992 42.1783 13.9326 41.699C13.9992 41.6263 14.1156 41.5951 14.2819 41.6055C15.3475 41.6751 15.2861 43.169 14.1853 43.0193C14.1395 43.013 14.1218 43.0328 14.1333 43.0775ZM14.231 42.1169L14.0647 42.4797C14.046 42.5192 14.0636 42.5671 14.1031 42.5858L14.126 42.5962C14.2643 42.6596 14.4233 42.6086 14.4815 42.4818L14.5044 42.4329C14.5626 42.3061 14.4982 42.1523 14.3609 42.0878L14.3381 42.0774C14.2975 42.0587 14.2507 42.0774 14.232 42.1169H14.231Z" fill="white"/>
<path d="M18.3328 44.1336L17.971 43.9101C17.892 43.8623 17.8671 43.7604 17.9149 43.6814C17.945 43.6315 18.0001 43.6003 18.0584 43.6014H18.4856C18.5189 43.6014 18.549 43.5795 18.5594 43.5483C18.6966 43.1419 19.0834 42.2323 19.6614 42.4516C20.1323 42.6294 20.3797 42.9953 20.4015 43.5494C20.4067 43.7001 20.3849 43.8207 20.3339 43.9111C20.3132 43.9486 20.282 43.9642 20.2393 43.9579L19.9618 43.9195C19.9046 43.9111 19.8651 43.8592 19.8734 43.803C19.8734 43.801 19.8734 43.7978 19.8745 43.7958C19.9358 43.4932 19.8817 43.2209 19.7102 42.9766C19.6499 42.8913 19.5324 42.8716 19.4482 42.9308C19.4212 42.9496 19.4004 42.9745 19.3869 43.0047L19.0543 43.7116C19.0376 43.7479 19.0532 43.7906 19.0886 43.8072C19.0886 43.8072 19.0906 43.8072 19.0917 43.8082L20.1312 44.2573C20.2009 44.2875 20.2331 44.3696 20.2019 44.4392C20.1936 44.458 20.1811 44.4756 20.1655 44.4891C19.9358 44.6835 19.1852 44.3509 18.9191 44.2615C18.8765 44.248 18.8505 44.2615 18.8401 44.3051L18.4336 45.9695C18.4316 45.9788 18.4274 45.9871 18.4222 45.9955C18.232 46.2637 17.9461 45.9466 18.0116 45.6846C18.1332 45.1992 18.2528 44.7116 18.3702 44.223C18.3796 44.1846 18.3671 44.1544 18.3328 44.1336Z" fill="white"/>
<path d="M26.6153 45.9565C26.7442 45.4388 26.8253 44.789 27.0748 44.263C27.0914 44.2266 27.1195 44.21 27.159 44.2121L27.3638 44.2204C27.4761 44.2256 27.5634 44.3202 27.5582 44.4325C27.5582 44.447 27.5551 44.4605 27.5519 44.4741L27.1538 46.0469C27.1205 46.1768 27.1715 46.2434 27.3056 46.2465L28.2006 46.2642C28.2422 46.2642 28.2776 46.2943 28.2869 46.3349C28.4096 46.8827 27.4002 46.7112 27.1289 46.6769C27.0987 46.6738 27.081 46.6873 27.0779 46.7185L26.9542 47.8079C26.949 47.8485 26.9272 47.8744 26.8877 47.8838C26.2109 48.0449 26.475 47.1364 26.5176 46.811C26.5311 46.7081 26.4583 46.6145 26.3554 46.601C26.3523 46.601 26.3481 46.601 26.345 46.5999C26.1361 46.5844 25.9552 46.5085 25.8024 46.3702C25.766 46.338 25.7639 46.2829 25.7961 46.2465C25.8003 46.2423 25.8034 46.2382 25.8086 46.2351C25.9594 46.1186 26.1361 46.0833 26.3367 46.128C26.4854 46.1623 26.5789 46.1051 26.6153 45.9565Z" fill="white"/>
<path d="M20.8217 46.2489C20.4381 45.804 20.3934 45.2905 20.6876 44.7083C21.0224 44.0482 22.0391 44.5056 21.9829 45.2946C21.9528 45.7188 21.5869 45.7437 21.2739 45.8498C21.2448 45.8601 21.2282 45.8913 21.2386 45.9204C21.2386 45.9225 21.2396 45.9246 21.2407 45.9256C21.5702 46.6273 22.3249 45.8414 22.7366 45.7053C22.8125 45.6803 22.8957 45.7208 22.9206 45.7978C22.9372 45.8487 22.9248 45.9049 22.8884 45.9433C22.3166 46.5525 21.5338 47.0744 20.8217 46.2489ZM21.1201 44.9973L21.0525 45.2915C21.0359 45.3632 21.0806 45.435 21.1534 45.4516C21.1762 45.4568 21.2012 45.4558 21.223 45.4485C21.5151 45.3549 21.5848 44.9755 21.2843 44.8975C21.2126 44.8788 21.1398 44.9225 21.1211 44.9942C21.1211 44.9952 21.1211 44.9963 21.1211 44.9973H21.1201Z" fill="white"/>
<path d="M24.4688 46.8032C24.1413 46.5901 22.8637 46.1244 23.5592 45.5526C23.7973 45.3572 25.0167 45.1399 24.7744 45.7844C24.7609 45.8187 24.736 45.8364 24.6996 45.8364H24.0499C24.0093 45.8364 23.9771 45.8686 23.9761 45.9081C23.9761 45.9352 23.9896 45.9591 24.0135 45.9726C24.3472 46.1691 24.6663 46.3541 24.9699 46.5298C25.3493 46.7491 25.3285 47.2585 24.8846 47.3604C24.3763 47.4779 23.8929 47.3999 23.4344 47.1275C23.4001 47.1078 23.3773 47.0787 23.3658 47.0413C23.3118 46.876 23.3419 46.7346 23.4573 46.6171C23.4854 46.589 23.527 46.5807 23.5634 46.5963C23.8711 46.7294 24.079 46.9529 24.4511 46.8895C24.4771 46.8843 24.4948 46.8593 24.4896 46.8344C24.4875 46.8219 24.4802 46.8105 24.4688 46.8032Z" fill="white"/>
<path d="M29.0423 48.0671C28.6587 48.0089 28.5413 47.6347 28.7097 47.3197C29.0985 46.5962 29.6848 46.1876 30.4676 46.093C30.5663 46.0816 30.6568 46.1523 30.6682 46.251C30.6692 46.2604 30.6692 46.2697 30.6692 46.2791C30.6474 46.8893 30.7628 47.459 31.0154 47.9881C31.1225 48.2106 31.1391 48.4019 30.8449 48.4445C30.8127 48.4497 30.7836 48.4434 30.7566 48.4258C30.427 48.2147 30.3137 47.7116 30.2254 47.3581C30.217 47.3259 30.1848 47.3072 30.1536 47.3155C30.1401 47.3186 30.1287 47.327 30.1204 47.3374C29.8781 47.6596 29.4894 48.1347 29.0423 48.0671ZM29.2315 47.5297C29.2835 47.5775 29.4987 47.4268 29.7108 47.1949C29.9228 46.9621 30.0538 46.7344 30.0008 46.6876C29.9488 46.6398 29.7336 46.7905 29.5216 47.0224C29.3095 47.2552 29.1785 47.4829 29.2315 47.5297Z" fill="white"/>
<path d="M32.982 47.8248L31.931 47.4443C31.8967 47.4318 31.8707 47.409 31.853 47.3768C31.3884 46.516 33.218 46.0794 33.1421 46.7904C33.1379 46.8247 33.113 46.8539 33.0787 46.8601L32.4258 46.9817C32.4009 46.9859 32.3832 47.0098 32.3874 47.0358C32.3895 47.0483 32.3967 47.0597 32.4082 47.067C32.772 47.3144 33.8864 47.4079 33.7949 48.0213C33.7014 48.6523 32.3572 48.4724 31.9903 48.3279C31.9528 48.3134 31.9289 48.2864 31.9196 48.2469C31.877 48.0691 31.9217 47.9184 32.0526 47.7967C32.0786 47.7728 32.1057 47.7707 32.1337 47.7895C32.3905 47.9547 32.6681 48.0171 32.9664 47.9745C33.009 47.9672 33.0381 47.9277 33.0309 47.8851C33.0267 47.8581 33.008 47.8352 32.982 47.8248Z" fill="white"/>
</svg>
